<svg width="32" height="32" viewBox="0 0 32 32" fill="none" xmlns="http://www.w3.org/2000/svg">
<path d="M15.9997 0C7.17757 0 0 7.17757 0 16C0 24.8224 7.17757 32 15.9997 32C24.8222 32 32 24.8224 32 16C32 7.17757 24.8219 0 15.9997 0ZM15.9997 30.4219C8.0476 30.4219 1.57806 23.9521 1.57806 16C1.57806 8.04787 8.0476 1.57806 15.9997 1.57806C23.9519 1.57806 30.4219 8.04787 30.4219 16C30.4219 23.9521 23.9519 30.4219 15.9997 30.4219Z" fill="#484E53"/>
<path d="M15.9326 7.0578C11.0017 7.0578 6.99023 11.0692 6.99023 15.9999C6.99023 20.9308 11.0017 24.9423 15.9326 24.9423C20.8635 24.9423 24.875 20.9308 24.875 15.9999C24.875 11.0692 20.8635 7.0578 15.9326 7.0578ZM21.7701 11.5182C22.723 12.7539 23.2563 14.2616 23.2922 15.8216C21.4258 15.5317 19.7697 15.5736 18.3176 15.8316C18.0825 15.281 17.8322 14.737 17.5669 14.2004C19.0651 13.5647 20.5274 12.6991 21.7701 11.5182ZM20.6784 10.3754C19.5585 11.4375 18.2142 12.2168 16.8271 12.7885C15.7643 10.8694 14.7527 9.4704 14.2625 8.82892C14.8099 8.70087 15.3702 8.6361 15.9323 8.63587C17.7397 8.63587 19.3957 9.29129 20.6784 10.3754ZM12.9745 9.25789L12.7428 9.44883C12.7673 9.47855 13.9766 10.9696 15.3085 13.3332C12.5624 14.1822 9.91123 14.3322 8.75609 14.3524C9.28106 12.0668 10.871 10.1847 12.9745 9.25789ZM8.5683 15.9999C8.5683 15.9781 8.56961 15.9565 8.56988 15.9347C9.73843 15.9328 12.8438 15.8153 16.0683 14.7606C16.3083 15.2393 16.5361 15.724 16.7514 16.2143C13.2233 17.3071 11.1482 19.6237 10.3123 20.7509C9.22556 19.4677 8.5683 17.8094 8.5683 15.9999ZM11.4583 21.8437C12.0435 20.9805 13.8906 18.6589 17.3421 17.6603C17.9404 19.2539 18.427 20.9955 18.6587 22.8085L18.7729 22.7937C17.8736 23.1712 16.9079 23.3652 15.9326 23.3642C14.3142 23.3655 12.7408 22.8309 11.4583 21.8437ZM20.141 22.0376C19.8833 20.3761 19.4414 18.7894 18.9078 17.3239C20.1539 17.1437 21.5687 17.1398 23.1617 17.3991C22.7924 19.3109 21.6818 20.9606 20.141 22.0376Z" fill="#A9A9A9"/>
</svg>
