<?xml version="1.0" standalone="no"?>
<!DOCTYPE svg PUBLIC "-//W3C//DTD SVG 20010904//EN"
 "http://www.w3.org/TR/2001/REC-SVG-20010904/DTD/svg10.dtd">
<svg version="1.0" xmlns="http://www.w3.org/2000/svg"
 width="24" height="24" viewBox="0 0 801.000000 801.000000"
 preserveAspectRatio="xMidYMid meet">

<g transform="translate(0.000000,801.000000) scale(0.100000,-0.100000)"
fill="#ffff0f" stroke="none">
<path d="M1947 6745 c-228 -47 -429 -179 -619 -404 -210 -249 -345 -541 -404
-874 -15 -87 -30 -257 -22 -257 3 0 63 59 133 130 71 72 134 130 140 130 5 0
240 -229 520 -510 l510 -510 142 142 143 143 0 338 0 337 145 -147 145 -148 0
-405 0 -405 195 -195 c107 -107 195 -201 195 -208 0 -7 -467 -478 -1037 -1047
l-1038 -1034 410 -411 c225 -225 414 -410 419 -410 5 0 397 388 872 863 474
474 942 941 1038 1037 l176 175 1040 -1040 1040 -1040 71 70 c253 247 749 746
749 753 0 5 -467 476 -1037 1046 l-1038 1036 203 203 202 202 0 410 0 410 138
138 c76 76 141 135 145 131 4 -4 7 -155 7 -335 l0 -329 141 -141 142 -142 507
509 c279 279 512 510 517 511 4 2 67 -55 138 -127 71 -71 133 -130 136 -130 7
0 6 26 -6 160 -16 174 -87 414 -176 595 -100 205 -203 348 -356 496 -108 105
-195 167 -305 218 -130 61 -193 75 -348 75 -148 0 -210 -12 -335 -65 -165 -71
-187 -90 -747 -648 -291 -289 -528 -530 -528 -535 0 -6 53 -64 117 -128 l118
-118 -265 -265 c-146 -146 -267 -265 -270 -265 -9 0 -530 521 -530 530 0 5 52
60 115 122 63 62 115 117 115 122 0 18 -1026 1033 -1092 1079 -85 61 -216 122
-315 148 -103 26 -267 33 -356 14z"/>
</g>
</svg>
