<?xml version="1.0" standalone="no"?>
<!DOCTYPE svg PUBLIC "-//W3C//DTD SVG 20010904//EN"
 "http://www.w3.org/TR/2001/REC-SVG-20010904/DTD/svg10.dtd">
<svg version="1.0" xmlns="http://www.w3.org/2000/svg"
 width="60px" height="60px" viewBox="0 0 980.000000 980.000000"
 preserveAspectRatio="xMidYMid meet">

<g transform="translate(0.000000,980.000000) scale(0.100000,-0.100000)"
fill="#dedede" stroke="none">
<path d="M4662 9679 c-845 -41 -1673 -310 -2382 -775 -703 -460 -1281 -1109
-1656 -1856 -307 -613 -471 -1246 -503 -1938 -47 -1010 228 -2001 793 -2858
386 -586 942 -1113 1560 -1477 545 -321 1183 -540 1801 -619 412 -52 852 -52
1253 0 1431 186 2716 1027 3469 2271 293 485 507 1047 608 1597 261 1427 -126
2877 -1064 3981 -127 149 -359 382 -511 514 -936 808 -2132 1220 -3368 1160z
m559 -219 c623 -48 1153 -193 1704 -465 246 -122 445 -242 656 -395 927 -671
1577 -1679 1798 -2791 60 -301 80 -482 88 -804 19 -745 -136 -1449 -466 -2120
-445 -903 -1159 -1623 -2055 -2070 -557 -279 -1104 -428 -1746 -476 -279 -21
-726 -1 -1016 46 -1681 270 -3075 1448 -3614 3054 -345 1026 -318 2122 77
3136 76 195 255 552 363 725 215 342 413 588 699 869 779 765 1821 1228 2911
1294 133 8 477 6 601 -3z"/>
<path d="M2861 8035 c-198 -44 -337 -171 -414 -380 -7 -20 -13 -197 -17 -510
l-5 -480 -372 -3 -372 -2 -20 -26 c-21 -26 -21 -34 -21 -751 l0 -724 25 -24
24 -25 371 0 370 0 0 -900 0 -900 -350 0 c-368 0 -398 -3 -414 -45 -3 -9 -6
-342 -6 -740 0 -697 1 -724 19 -746 l19 -24 1511 -3 1512 -2 24 24 c22 23 25
33 25 106 l0 80 818 0 c905 0 897 0 1020 65 124 65 211 161 264 293 23 57 23
61 28 592 l5 535 607 3 607 2 20 26 c21 26 21 34 21 751 l0 724 -25 24 -24 25
-606 0 -605 0 0 1293 c0 1097 -2 1300 -15 1347 -49 184 -183 322 -375 387 -53
17 -134 18 -1820 20 -1476 1 -1775 -1 -1829 -12z m3570 -145 c124 -23 229
-105 283 -220 l31 -65 3 -1302 2 -1303 -824 0 c-818 0 -823 0 -850 -21 -26
-20 -26 -21 -26 -160 l0 -139 -257 -1 c-294 0 -322 -5 -337 -57 -7 -27 -6 -38
11 -60 l20 -27 279 -5 279 -5 5 -515 c4 -370 8 -521 17 -535 11 -20 25 -20
848 -25 l836 -5 -1 -508 c0 -476 -2 -512 -20 -564 -36 -104 -129 -196 -240
-240 -42 -17 -107 -18 -882 -21 l-838 -3 0 401 0 400 702 0 702 0 23 22 c31
29 30 72 -2 103 l-24 25 -701 0 -700 0 0 96 c0 108 -7 127 -51 143 -23 8 -342
11 -1085 11 l-1054 0 0 900 0 900 1059 0 c1244 0 1111 -16 1111 131 l0 89 716
2 716 3 19 24 c23 28 24 68 3 96 -15 20 -30 20 -732 25 l-717 5 -3 328 -2 327
710 0 711 0 24 25 c31 30 32 71 3 102 l-21 23 -714 0 -713 0 0 162 c0 152 -1
163 -22 185 l-21 23 -1064 0 -1064 0 3 473 3 472 27 58 c52 110 168 204 281
227 63 12 3472 12 3538 0z m-1831 -2005 l0 -625 -1405 0 -1405 0 0 625 0 625
1405 0 1405 0 0 -625z m3410 -1660 l0 -625 -1405 0 -1405 0 0 625 0 625 1405
0 1405 0 0 -625z m-3390 -1695 l0 -630 -1405 0 -1405 0 0 630 0 630 1405 0
1405 0 0 -630z"/>
<path d="M3135 7075 c-14 -13 -25 -36 -25 -50 0 -14 11 -37 25 -50 l24 -25
1504 0 1504 0 27 21 c34 27 36 77 3 107 l-23 22 -1508 0 -1507 0 -24 -25z"/>
<path d="M3154 4666 c-48 -22 -60 -75 -24 -114 21 -22 24 -22 360 -22 l339 0
20 26 c27 35 26 57 -3 91 l-24 28 -319 2 c-252 2 -324 0 -349 -11z"/>
<path d="M3153 3860 c-45 -18 -55 -72 -22 -114 l20 -26 774 0 774 0 21 22 c25
27 26 69 1 99 l-19 24 -764 2 c-428 1 -773 -2 -785 -7z"/>
<path d="M1993 6240 c-12 -5 -26 -18 -32 -29 -7 -13 -11 -131 -11 -334 0 -286
2 -315 18 -329 41 -37 100 -28 121 19 6 13 11 73 11 133 l0 110 100 0 100 0 0
-110 c0 -60 5 -120 11 -133 21 -47 80 -56 122 -19 15 14 17 43 17 329 0 202
-4 321 -11 334 -25 48 -105 44 -128 -7 -6 -14 -11 -74 -11 -134 l0 -110 -100
0 -100 0 0 110 c0 119 -9 152 -47 169 -28 13 -30 13 -60 1z"/>
<path d="M2565 6240 c-31 -12 -48 -38 -48 -71 0 -52 22 -63 136 -69 l102 -5 3
-266 c2 -252 3 -267 22 -284 28 -25 76 -23 103 4 21 21 22 29 25 286 l3 265
93 0 c76 0 98 3 117 18 33 27 30 78 -5 109 -27 23 -29 23 -279 22 -139 0 -261
-4 -272 -9z"/>
<path d="M3253 6240 c-12 -5 -26 -18 -32 -29 -15 -27 -15 -625 0 -652 23 -44
105 -44 125 -1 5 10 11 64 14 122 l5 105 50 -119 c42 -100 55 -121 81 -133 27
-13 34 -13 60 0 24 12 39 38 79 134 l50 118 5 -105 c7 -120 11 -134 50 -150
23 -9 34 -9 58 4 16 8 32 23 36 31 11 29 7 625 -5 646 -15 29 -57 42 -90 29
-31 -13 -40 -28 -119 -220 -33 -80 -68 -163 -78 -184 l-19 -40 -77 185 c-105
247 -103 245 -132 258 -29 13 -31 13 -61 1z"/>
<path d="M3944 6239 c-12 -6 -27 -22 -33 -35 -15 -34 -15 -604 0 -637 19 -42
47 -47 270 -47 l211 0 30 30 c24 25 29 36 23 58 -15 59 -22 61 -214 64 l-176
3 -5 267 c-5 288 -6 291 -60 302 -14 3 -35 0 -46 -5z"/>
<path d="M5833 4645 c-176 -38 -318 -188 -342 -360 -37 -262 173 -495 447
-495 91 0 232 51 276 99 40 44 9 121 -49 121 -12 0 -51 -15 -85 -32 -56 -29
-72 -33 -144 -33 -68 0 -90 4 -138 28 -102 50 -161 143 -162 253 0 157 131
278 300 278 59 0 81 -5 136 -32 36 -17 79 -32 95 -32 58 0 88 75 48 120 -29
32 -134 78 -205 89 -80 13 -99 13 -177 -4z"/>
<path d="M6604 4649 c-118 -27 -214 -132 -214 -234 1 -119 69 -186 263 -259
96 -36 145 -64 164 -92 16 -24 16 -28 -1 -59 -34 -63 -136 -83 -216 -42 -38
19 -47 29 -60 71 -9 26 -24 54 -35 62 -51 37 -115 -3 -115 -72 1 -157 203
-272 385 -219 119 34 191 112 202 217 4 45 1 61 -24 107 -36 68 -87 104 -229
161 -138 56 -173 76 -180 107 -12 48 31 89 113 107 71 16 173 -42 173 -98 0
-62 90 -89 129 -40 70 89 -49 250 -207 283 -61 13 -91 13 -148 0z"/>
<path d="M7344 4646 c-222 -56 -286 -296 -110 -413 25 -17 99 -51 163 -77 157
-61 194 -97 162 -158 -14 -26 -85 -58 -132 -58 -73 0 -147 49 -147 97 0 32
-43 73 -75 73 -37 0 -75 -42 -75 -83 0 -18 12 -56 26 -85 101 -202 446 -200
544 4 18 35 21 58 18 104 -7 103 -66 164 -216 226 -183 74 -222 99 -222 137 0
29 52 74 100 87 82 22 190 -25 190 -83 0 -40 36 -77 76 -77 64 0 94 67 64 146
-46 120 -221 197 -366 160z"/>
<path d="M3013 2985 c-16 -7 -33 -20 -37 -30 -3 -9 -6 -144 -6 -300 0 -155 -3
-297 -6 -315 -10 -47 -70 -105 -124 -120 -38 -10 -53 -9 -97 4 -76 24 -104 63
-128 178 -7 38 -53 61 -93 47 -39 -13 -56 -54 -47 -111 32 -199 239 -321 433
-254 70 24 152 99 183 168 23 52 24 61 27 362 2 217 0 318 -8 337 -15 36 -57
51 -97 34z"/>
<path d="M3515 2973 c-71 -30 -124 -73 -156 -126 -27 -47 -30 -59 -27 -124 3
-62 7 -76 34 -110 45 -57 105 -93 253 -153 187 -76 227 -126 158 -195 -64 -64
-201 -67 -267 -5 -16 15 -30 37 -30 49 0 33 -20 68 -47 80 -34 16 -47 14 -77
-10 -38 -30 -36 -96 4 -166 117 -204 463 -196 573 12 29 55 29 145 -1 201 -37
71 -108 117 -295 188 -54 21 -111 49 -127 63 -62 52 -23 132 78 158 99 26 205
-19 218 -93 13 -74 74 -104 125 -63 20 16 24 28 23 68 -1 85 -58 164 -157 215
-57 30 -222 37 -282 11z"/>
</g>
</svg>
