<?xml version="1.0" standalone="no"?>
<!DOCTYPE svg PUBLIC "-//W3C//DTD SVG 20010904//EN"
 "http://www.w3.org/TR/2001/REC-SVG-20010904/DTD/svg10.dtd">
<svg version="1.0" xmlns="http://www.w3.org/2000/svg"
 width="28" height="28" viewBox="0 0 1024.000000 569.000000"
 preserveAspectRatio="xMidYMid meet">

<g transform="translate(0.000000,569.000000) scale(0.100000,-0.100000)"
fill="#ffff" stroke="none">
<path d="M5037 5664 c-147 -35 -261 -124 -326 -255 -49 -98 -67 -183 -81 -377
-6 -93 -16 -167 -25 -190 -35 -83 -96 -117 -225 -127 -47 -3 -95 -8 -107 -10
-25 -6 -43 -50 -43 -106 0 -55 25 -68 152 -78 140 -12 186 -37 224 -126 16
-36 18 -108 21 -775 l4 -735 24 -22 c29 -26 112 -38 193 -29 65 8 99 26 112
62 6 15 10 309 10 738 0 519 3 722 12 747 17 50 45 83 91 110 38 22 57 24 203
29 172 5 182 8 210 61 19 38 18 103 -3 120 -12 10 -65 15 -204 19 -219 6 -225
8 -274 105 -28 57 -30 66 -30 180 1 249 79 366 270 405 48 10 83 10 176 0 131
-14 152 -9 174 43 26 64 28 111 5 139 -24 31 -113 63 -215 78 -99 14 -279 11
-348 -6z"/>
<path d="M3153 4792 c-202 -72 -270 -319 -131 -477 64 -72 116 -98 213 -103
106 -6 165 18 234 94 109 119 108 285 0 408 -70 80 -212 115 -316 78z"/>
<path d="M9340 4779 c-87 -13 -218 -59 -286 -100 -267 -161 -424 -505 -424
-929 0 -525 191 -833 585 -942 71 -19 104 -22 290 -22 222 0 340 14 469 56
147 48 186 109 136 213 -34 70 -50 73 -178 31 -138 -44 -259 -66 -371 -66
-339 1 -571 206 -571 505 0 64 23 127 56 157 54 47 61 48 614 48 504 0 521 1
540 20 29 29 34 61 27 194 -21 441 -223 743 -547 821 -83 19 -256 27 -340 14z
m215 -211 c224 -56 369 -395 244 -568 -49 -68 -60 -70 -389 -70 -321 0 -327 1
-373 62 -37 50 -50 103 -44 178 24 282 286 467 562 398z"/>
<path d="M6651 4770 c-115 -24 -198 -62 -337 -151 -111 -72 -138 -79 -198 -49
-43 21 -70 53 -116 144 -22 43 -50 52 -122 37 -72 -15 -139 -44 -164 -72 -17
-19 -17 -24 4 -142 22 -119 22 -143 23 -862 0 -546 3 -749 12 -775 14 -41 43
-57 119 -66 87 -10 162 3 192 33 l25 25 3 687 3 686 27 47 c48 81 161 158 298
204 74 24 193 24 240 0 83 -44 138 -113 173 -216 21 -64 22 -77 27 -744 l5
-680 32 -19 c42 -24 194 -35 247 -17 68 22 66 -1 66 755 0 646 1 677 19 713
47 91 204 187 358 219 68 14 88 15 137 4 72 -16 131 -61 174 -131 69 -115 66
-83 72 -838 6 -774 -4 -701 92 -721 97 -21 200 -8 231 30 17 21 18 65 15 798
-3 761 -4 777 -24 838 -42 122 -108 203 -203 247 -40 18 -64 21 -181 21 -186
-1 -255 -22 -446 -142 -109 -67 -143 -83 -177 -83 -55 0 -98 23 -177 96 -114
105 -164 127 -300 130 -58 2 -125 -1 -149 -6z"/>
<path d="M1647 4736 c-120 -43 -184 -175 -147 -307 14 -49 71 -113 125 -139
60 -29 150 -29 211 0 85 42 134 125 134 226 -1 159 -170 274 -323 220z"/>
<path d="M125 4686 c-68 -30 -115 -102 -115 -176 0 -147 152 -241 281 -175 40
21 87 80 99 126 23 84 -25 184 -104 220 -48 22 -118 24 -161 5z"/>
<path d="M3145 3286 c-60 -28 -87 -56 -114 -116 -38 -84 -20 -201 42 -269 55
-60 169 -86 258 -60 91 28 159 126 159 229 0 178 -183 293 -345 216z"/>
<path d="M1685 3261 c-45 -11 -69 -26 -103 -66 -39 -43 -46 -69 -40 -144 8
-108 93 -178 204 -169 162 14 232 204 120 326 -41 46 -119 68 -181 53z"/>
<path d="M135 3210 c-56 -29 -78 -63 -83 -130 -3 -45 0 -61 20 -90 78 -116
260 -78 283 60 14 83 -66 179 -150 180 -16 0 -48 -9 -70 -20z"/>
<path d="M4695 1857 c-96 -46 -139 -121 -133 -233 3 -61 8 -80 33 -116 17 -23
50 -56 74 -73 39 -27 50 -30 125 -30 74 0 87 3 131 30 31 19 61 49 80 79 27
44 30 58 30 126 0 68 -3 82 -30 126 -65 104 -200 143 -310 91z"/>
<path d="M3205 1828 c-50 -10 -107 -56 -129 -102 -31 -66 -17 -163 33 -220 62
-71 198 -74 275 -7 65 57 76 189 20 257 -50 63 -123 89 -199 72z"/>
<path d="M1646 1771 c-95 -63 -93 -208 4 -265 44 -25 124 -25 159 1 95 71 95
204 -1 263 -44 26 -123 27 -162 1z"/>
<path d="M170 1759 c-117 -25 -119 -200 -3 -237 37 -12 46 -11 86 6 138 61 66
263 -83 231z"/>
<path d="M4732 386 c-83 -30 -142 -135 -123 -219 20 -85 83 -143 171 -154 74
-10 167 44 196 114 17 39 18 111 3 150 -34 92 -152 144 -247 109z"/>
<path d="M3180 342 c-51 -25 -80 -74 -80 -136 0 -64 26 -108 79 -136 106 -54
221 16 221 134 0 120 -114 192 -220 138z"/>
<path d="M1659 307 c-48 -32 -68 -91 -48 -143 17 -45 69 -84 111 -84 72 0 128
55 128 125 0 103 -105 160 -191 102z"/>
<path d="M160 292 c-43 -21 -62 -56 -56 -101 18 -124 196 -111 196 14 0 46
-23 81 -62 94 -39 14 -37 14 -78 -7z"/>
</g>
</svg>
