<svg width="24" height="24" viewBox="0 0 32 32" fill="none" xmlns="http://www.w3.org/2000/svg">
<path d="M15.9997 0C7.17757 0 0 7.17757 0 16C0 24.8227 7.17757 32 15.9997 32C24.8222 32 32 24.8227 32 16C31.9997 7.17757 24.8219 0 15.9997 0ZM15.9997 30.4219C8.0476 30.4219 1.57806 23.9524 1.57806 16C1.57806 8.04787 8.0476 1.57806 15.9997 1.57806C23.9519 1.57806 30.4219 8.04787 30.4219 16C30.4217 23.9524 23.9519 30.4219 15.9997 30.4219Z" fill="#484E53"/>
<path d="M20.9272 6.61115H17.4565C17.4486 6.6111 17.4407 6.61145 17.4329 6.6122C13.9288 6.62325 13.4711 9.07004 13.4693 11.2086C13.4644 11.2288 13.462 11.2496 13.4619 11.2704V12.7717H11.0638C10.994 12.7717 10.9271 12.7994 10.8778 12.8487C10.8285 12.898 10.8008 12.9649 10.8008 13.0347V16.7371C10.8008 16.8068 10.8285 16.8737 10.8778 16.923C10.9271 16.9724 10.994 17.0001 11.0638 17.0001H13.4619V25.1247C13.4619 25.1945 13.4896 25.2614 13.539 25.3107C13.5883 25.36 13.6552 25.3878 13.7249 25.3878H17.2248C17.2946 25.3878 17.3615 25.36 17.4108 25.3107C17.4601 25.2614 17.4878 25.1945 17.4878 25.1247V17.0003H20.927C20.9967 17.0003 21.0636 16.9726 21.1129 16.9233C21.1623 16.874 21.19 16.8071 21.19 16.7373V13.0349C21.19 12.9652 21.1623 12.8983 21.1129 12.8489C21.0636 12.7996 20.9967 12.7719 20.927 12.7719H17.2248V10.7817H20.927C20.9967 10.7817 21.0636 10.754 21.1129 10.7047C21.1623 10.6554 21.19 10.5885 21.19 10.5187V6.87416C21.19 6.83963 21.1832 6.80544 21.17 6.77353C21.1569 6.74162 21.1375 6.71263 21.1131 6.6882C21.0887 6.66377 21.0597 6.6444 21.0278 6.63118C20.9959 6.61795 20.9617 6.61115 20.9272 6.61115Z" fill="#A9A9A9"/>
</svg>
