<?xml version="1.0" standalone="no"?>
<!DOCTYPE svg PUBLIC "-//W3C//DTD SVG 20010904//EN"
 "http://www.w3.org/TR/2001/REC-SVG-20010904/DTD/svg10.dtd">
<svg version="1.0" xmlns="http://www.w3.org/2000/svg"
 width="24" height="24" viewBox="0 0 1000.000000 1080.000000"
 preserveAspectRatio="xMidYMid meet">

<g transform="translate(0.000000,1080.000000) scale(0.100000,-0.100000)"
fill="green" stroke="none">
<path d="M4820 9539 c-248 -13 -509 -48 -563 -74 -15 -8 -25 -9 -22 -4 9 14
-2 11 -19 -7 -9 -8 -16 -11 -16 -5 0 15 -52 3 -66 -16 -10 -11 -13 -11 -17 -1
-3 10 -10 8 -27 -7 -13 -11 -20 -14 -16 -7 4 6 2 12 -3 12 -6 0 -11 -4 -11 -9
0 -5 -10 -9 -22 -9 -36 0 -81 -12 -107 -29 -13 -8 -20 -10 -16 -4 4 7 -9 5
-32 -5 -21 -9 -43 -17 -50 -17 -7 0 -9 -5 -6 -10 4 -6 -1 -8 -11 -4 -9 4 -33
0 -52 -8 -19 -8 -38 -15 -42 -16 -22 -4 -42 -22 -36 -32 5 -9 4 -9 -6 0 -9 9
-21 8 -49 -2 -57 -20 -91 -41 -83 -50 4 -5 1 -5 -5 -1 -7 4 -19 4 -25 -1 -7
-4 -19 -8 -27 -10 -27 -4 -71 -26 -71 -35 0 -5 5 -6 12 -2 7 4 8 3 4 -5 -6 -9
-11 -9 -21 -1 -13 11 -48 3 -40 -10 3 -4 -3 -7 -13 -6 -11 0 -16 -6 -16 -17 2
-14 -1 -15 -11 -7 -16 13 -75 -13 -75 -33 0 -8 4 -7 10 3 7 12 9 10 7 -7 -1
-14 -5 -19 -12 -14 -14 11 -46 10 -39 -1 4 -5 0 -8 -8 -6 -8 2 -35 -8 -60 -22
-43 -22 -46 -27 -43 -57 3 -32 -7 -44 -20 -23 -3 6 0 10 7 10 10 0 10 2 -1 9
-11 7 -11 9 0 14 10 4 9 6 -3 6 -10 1 -18 -4 -18 -10 0 -5 -4 -8 -9 -5 -5 3
-12 -1 -15 -10 -3 -8 -11 -12 -17 -8 -8 5 -9 3 -4 -6 6 -10 4 -12 -9 -7 -12 5
-19 0 -25 -16 -5 -13 -21 -32 -36 -41 -15 -10 -24 -12 -20 -5 6 9 3 11 -9 6
-10 -4 -20 -7 -22 -7 -2 0 -4 -5 -4 -11 0 -5 5 -7 12 -3 7 4 8 3 4 -5 -6 -9
-11 -9 -21 -1 -10 8 -16 7 -24 -7 -6 -10 -11 -14 -11 -10 0 4 -20 -7 -45 -25
-24 -18 -62 -46 -84 -62 -22 -16 -38 -33 -35 -38 5 -7 -10 -12 -28 -9 -4 0
-12 -8 -18 -19 -6 -11 -16 -20 -22 -20 -7 0 -26 -13 -42 -29 -17 -15 -52 -48
-78 -72 -25 -24 -55 -49 -65 -55 -10 -6 -16 -14 -13 -19 3 -4 -8 -14 -23 -22
-21 -10 -27 -20 -24 -34 6 -22 -8 -35 -19 -18 -5 8 -3 9 6 4 9 -5 11 -4 6 4
-4 6 -11 9 -16 6 -10 -6 -2 -35 10 -35 4 0 10 -6 13 -13 3 -8 -1 -14 -9 -14
-7 0 -11 4 -9 8 3 3 -2 13 -11 20 -14 11 -15 10 -12 -7 2 -14 -3 -19 -18 -19
-22 0 -57 -29 -47 -39 4 -3 -1 -6 -11 -6 -9 0 -19 -7 -23 -16 -3 -9 -28 -36
-54 -61 -28 -26 -49 -55 -49 -66 0 -11 -3 -17 -7 -14 -8 9 -43 -22 -43 -39 0
-7 -9 -18 -21 -24 -11 -7 -18 -14 -15 -17 3 -3 -5 -14 -18 -24 -16 -13 -22
-26 -19 -39 3 -12 0 -20 -6 -20 -7 0 -9 5 -6 10 3 6 4 10 1 10 -10 0 -66 -89
-66 -104 0 -9 -10 -22 -23 -31 -25 -16 -104 -132 -100 -146 2 -5 -2 -9 -8 -9
-5 0 -8 -4 -4 -9 3 -6 -3 -14 -12 -20 -10 -6 -13 -11 -8 -11 6 0 6 -3 -1 -8
-13 -9 -61 -87 -48 -80 5 4 10 -1 10 -11 0 -10 -6 -18 -13 -18 -7 0 -10 4 -7
9 3 4 3 8 0 8 -3 0 -13 -15 -21 -32 -14 -29 -14 -31 -1 -14 9 11 18 17 21 14
3 -3 -10 -21 -30 -39 -22 -22 -33 -39 -30 -50 3 -10 0 -21 -6 -25 -8 -5 -10
-3 -4 7 6 11 5 12 -5 2 -11 -10 -11 -15 0 -28 7 -8 9 -15 5 -15 -4 0 -2 -7 5
-15 11 -13 10 -14 -4 -9 -9 3 -16 2 -16 -4 0 -6 6 -13 13 -15 9 -4 9 -6 0 -6
-19 -1 -25 17 -13 39 7 13 7 20 1 20 -15 0 -33 -38 -25 -52 4 -7 3 -8 -4 -4
-18 11 -14 -4 5 -28 10 -12 11 -15 3 -8 -14 12 -39 18 -27 6 3 -4 -1 -13 -9
-21 -8 -8 -12 -19 -9 -24 4 -5 1 -9 -4 -9 -6 0 -11 -6 -11 -14 0 -7 -16 -48
-36 -90 -29 -63 -33 -80 -23 -92 10 -12 10 -15 -1 -12 -14 3 -33 -49 -23 -65
3 -6 1 -7 -5 -3 -12 7 -27 -21 -36 -67 -2 -12 -12 -39 -21 -60 -9 -22 -12 -36
-7 -33 5 3 1 -11 -8 -32 -22 -46 -34 -96 -21 -88 5 3 12 -1 15 -10 9 -23 7
-31 -3 -15 -5 7 -14 10 -20 7 -15 -10 -14 -29 2 -20 6 4 4 -2 -5 -12 -10 -11
-19 -35 -21 -52 -2 -18 -7 -35 -10 -39 -4 -3 -7 -13 -7 -22 0 -14 2 -14 10 -1
6 9 10 10 10 3 0 -6 -7 -18 -15 -26 -8 -8 -17 -34 -20 -57 -3 -23 -7 -45 -9
-49 -2 -3 -6 -28 -10 -56 -3 -27 -10 -73 -15 -100 -15 -81 -34 -339 -29 -410
2 -35 0 -59 -4 -52 -4 6 -8 -17 -8 -53 0 -36 4 -59 8 -53 4 7 6 -17 4 -52 -6
-87 14 -330 39 -474 25 -145 26 -152 28 -174 0 -10 5 -15 11 -12 5 3 10 2 10
-4 0 -5 3 -18 6 -28 5 -15 4 -15 -5 -3 -9 13 -11 13 -11 -1 0 -9 3 -19 7 -22
3 -4 8 -21 10 -39 2 -17 11 -41 21 -52 9 -10 11 -16 5 -12 -16 9 -17 -10 -2
-20 6 -3 15 0 20 7 6 9 9 10 9 2 0 -7 -7 -16 -15 -20 -13 -8 -13 -15 1 -63 9
-30 16 -57 16 -60 0 -3 7 -21 15 -40 8 -19 17 -45 19 -57 9 -46 24 -74 36 -67
6 4 8 3 5 -3 -10 -16 9 -68 23 -65 10 2 11 0 2 -10 -8 -10 -5 -29 14 -73 13
-33 24 -62 24 -64 0 -2 10 4 23 15 12 10 16 12 10 4 -16 -17 -17 -80 -2 -80 5
0 8 -4 4 -9 -3 -5 1 -16 9 -24 8 -8 12 -17 9 -21 -12 -12 13 -6 27 6 8 7 7 4
-3 -8 -19 -24 -23 -39 -5 -28 7 4 8 3 4 -4 -8 -14 10 -52 25 -52 6 0 6 7 -1
20 -12 22 -6 40 13 39 9 0 9 -2 0 -6 -7 -2 -13 -9 -13 -15 0 -6 7 -7 16 -4 14
5 15 4 4 -9 -7 -8 -9 -15 -5 -15 4 0 1 -7 -6 -16 -11 -14 -11 -18 2 -28 9 -6
14 -16 12 -23 -6 -18 16 -26 35 -12 14 11 15 11 5 -1 -18 -20 -16 -35 2 -20
13 11 14 10 9 -4 -3 -9 -10 -16 -15 -16 -5 0 0 -18 11 -40 11 -22 23 -40 25
-40 3 0 -2 14 -10 31 -9 17 -14 33 -11 37 3 3 6 -1 6 -8 0 -11 3 -11 12 -2 10
10 10 15 -2 22 -9 6 -10 10 -3 10 19 0 26 -19 13 -35 -6 -8 -8 -19 -4 -26 4
-6 8 -19 8 -28 3 -24 28 -71 38 -71 5 0 7 -4 3 -9 -3 -6 3 -14 12 -20 10 -6
14 -11 9 -11 -6 0 -1 -7 10 -16 10 -8 13 -12 5 -9 -9 5 -8 -1 4 -19 21 -32 28
-33 20 -3 -5 17 -4 19 4 7 6 -8 8 -23 5 -33 -4 -12 6 -28 28 -49 18 -17 27
-28 19 -24 -8 6 -7 -1 5 -19 17 -26 18 -26 32 -9 12 17 13 17 7 -8 -5 -20 0
-37 25 -72 17 -25 33 -46 36 -46 3 0 2 5 -1 10 -3 6 -1 10 6 10 6 0 9 -8 6
-20 -3 -13 3 -26 19 -39 13 -10 21 -21 18 -24 -3 -3 4 -10 15 -17 12 -6 21
-17 21 -25 0 -7 5 -17 12 -21 6 -4 8 -3 5 3 -7 11 29 11 40 -1 5 -4 3 -6 -2
-4 -16 5 -17 -5 -6 -35 7 -17 15 -25 23 -21 6 4 8 3 5 -3 -4 -6 11 -27 33 -47
22 -20 40 -38 40 -41 0 -12 85 -93 92 -89 5 3 6 9 3 13 -3 7 30 8 43 2 1 0 -5
-12 -13 -25 -10 -15 -12 -27 -6 -30 5 -4 13 -1 17 5 5 8 3 9 -6 4 -9 -5 -11
-4 -6 4 10 15 27 4 20 -13 -5 -14 20 -46 37 -46 5 0 8 -5 6 -12 -1 -6 8 -17
20 -23 13 -7 20 -15 15 -20 -4 -4 1 -5 11 -2 10 4 16 3 13 -2 -5 -8 15 -28 84
-84 21 -18 23 -18 43 0 l22 18 -19 -22 c-12 -14 -14 -23 -7 -23 7 0 9 -5 6
-10 -3 -5 1 -10 9 -10 8 0 20 -9 26 -21 7 -11 14 -18 17 -15 3 2 22 -10 42
-29 57 -53 109 -84 131 -80 11 2 18 0 15 -6 -4 -5 -12 -7 -18 -3 -7 3 1 -6 18
-20 16 -14 31 -23 33 -21 2 2 9 -1 16 -6 56 -47 71 -57 76 -53 3 4 -4 12 -15
20 -43 28 -59 45 -25 26 19 -11 41 -31 47 -44 7 -13 17 -22 23 -20 5 1 10 -2
10 -8 0 -5 7 -10 15 -10 8 0 15 -5 15 -11 0 -5 4 -7 10 -4 5 3 10 1 10 -4 0
-6 8 -11 18 -11 15 0 15 2 2 11 -13 9 -13 10 0 6 8 -2 14 -10 13 -18 -3 -14
90 -70 124 -75 10 -2 19 -8 21 -14 7 -20 62 -42 77 -30 10 8 13 7 11 -7 -1
-12 5 -17 18 -15 10 2 15 -1 12 -6 -3 -6 8 -15 25 -21 26 -9 30 -8 25 5 -3 8
-2 12 4 9 6 -3 10 -12 10 -19 0 -15 47 -39 60 -31 5 3 12 0 15 -6 4 -5 14 -8
23 -4 9 3 13 3 9 -1 -7 -8 53 -43 83 -47 11 -2 23 -6 26 -10 4 -4 14 -1 22 6
12 9 14 9 9 0 -7 -11 13 -28 35 -32 4 -1 23 -8 42 -16 41 -17 49 -18 41 -6 -3
5 0 13 6 17 8 4 9 3 5 -4 -4 -7 -2 -12 4 -12 6 0 8 -6 4 -13 -4 -6 -4 -9 1 -5
4 4 21 0 37 -8 15 -8 34 -14 41 -12 6 1 21 -3 33 -9 25 -14 70 -25 102 -25 12
0 22 -4 22 -9 0 -5 5 -9 11 -9 5 0 7 6 3 13 -4 6 3 3 16 -8 17 -15 24 -17 27
-7 4 10 7 10 17 -1 14 -19 66 -31 66 -16 0 6 7 3 16 -5 17 -18 28 -21 19 -7
-3 5 7 4 22 -4 29 -14 239 -50 353 -60 250 -22 576 -23 760 -1 19 2 63 7 98
11 94 9 275 44 285 54 5 5 16 7 23 4 20 -8 116 17 138 36 11 9 16 10 12 4 -10
-19 4 -16 27 4 13 11 17 12 12 4 -6 -11 -4 -13 11 -7 10 4 30 10 43 12 14 3
28 7 33 10 5 3 20 8 35 10 14 3 38 11 53 19 15 8 31 11 35 7 5 -4 5 -1 1 6 -4
6 -2 12 4 12 6 0 8 5 4 12 -4 7 -3 8 5 4 6 -4 8 -12 5 -18 -8 -12 22 -4 84 23
30 13 41 22 36 31 -6 10 -4 10 8 0 14 -11 28 -8 95 24 43 20 83 38 88 38 28 4
55 19 56 32 1 8 2 19 3 26 0 6 11 13 23 14 13 2 22 -1 20 -7 -1 -6 4 -14 12
-17 8 -2 11 0 7 6 -3 5 2 9 12 8 11 0 16 6 16 17 -2 13 1 15 11 7 14 -12 48
-3 39 11 -3 5 2 6 11 3 13 -5 15 -1 11 21 -4 21 -2 24 8 16 20 -17 96 6 96 29
0 6 3 9 8 8 18 -5 52 15 50 29 -2 9 4 18 12 20 13 4 13 3 0 -6 -13 -9 -13 -11
3 -11 9 0 17 5 17 11 0 5 5 7 10 4 6 -3 10 -1 10 4 0 6 7 11 16 11 8 0 12 5 9
10 -4 6 -15 8 -25 5 -10 -3 -21 -1 -25 4 -3 6 0 8 9 5 8 -3 23 3 34 14 19 19
20 19 25 2 3 -14 0 -17 -12 -13 -13 4 -13 3 -2 -5 10 -7 24 -4 47 11 19 12 34
26 34 31 0 4 -12 0 -27 -9 -27 -17 -27 -17 -11 0 9 10 27 19 40 20 37 4 38 4
38 16 0 5 -5 7 -12 3 -7 -5 -8 -3 -3 5 5 9 10 10 18 2 8 -8 21 -3 46 16 20 15
38 30 41 34 3 3 19 13 35 22 44 22 80 63 64 72 -8 5 -10 4 -5 -3 5 -8 1 -10
-10 -5 -12 4 -15 3 -10 -5 8 -14 -31 -55 -45 -47 -5 4 -7 11 -3 16 3 5 10 6
16 3 6 -4 14 0 19 7 6 10 1 20 -14 32 -20 16 -20 17 -1 8 19 -9 56 1 38 11 -5
3 -4 3 3 2 6 -2 14 0 16 4 2 4 2 2 1 -5 -2 -6 4 -14 12 -17 8 -3 14 -1 14 4 0
6 3 9 8 8 11 -4 51 39 44 48 -4 3 -1 5 7 2 7 -2 26 8 42 22 15 14 44 38 63 53
20 16 33 34 29 40 -3 6 -1 7 5 3 13 -8 64 33 57 45 -3 4 4 10 15 14 11 4 18
11 15 16 -4 5 -1 9 5 9 7 0 10 7 7 15 -7 18 9 30 19 14 5 -8 3 -9 -6 -4 -9 5
-11 4 -6 -4 13 -20 27 -1 15 20 -9 18 -8 19 9 10 16 -9 25 -5 51 24 17 19 30
42 28 52 -2 21 15 31 22 12 2 -7 -1 -9 -9 -4 -9 5 -11 4 -6 -4 8 -12 26 -6 26
9 0 5 21 29 46 52 44 40 63 70 60 93 0 5 -5 9 -11 7 -5 -2 -7 0 -2 4 11 12 47
12 40 1 -3 -6 -1 -7 5 -3 7 4 12 13 12 20 0 8 10 21 23 30 12 9 15 14 7 11 -8
-4 -1 5 15 19 19 16 29 33 27 46 -2 11 2 20 8 20 6 0 8 -6 5 -12 -4 -7 3 -2
15 11 11 13 18 31 16 38 -3 8 -2 11 3 8 10 -6 101 114 101 133 0 6 4 12 8 14
4 2 19 18 32 37 13 20 18 31 9 27 -7 -4 -5 0 5 8 11 9 16 16 10 16 -5 0 -2 5
8 10 10 6 15 20 13 35 -1 14 2 28 8 32 6 3 7 1 3 -5 -4 -7 -3 -12 1 -12 12 0
35 39 29 49 -3 4 1 17 10 27 14 18 15 18 4 -4 -19 -39 -1 -23 20 18 11 22 16
40 11 40 -5 0 -12 7 -15 16 -5 14 -4 15 9 4 18 -15 20 0 3 20 -11 12 -10 12 4
1 24 -18 38 -6 33 29 -2 18 0 28 6 24 5 -3 6 -11 3 -17 -5 -9 -3 -9 6 0 10 9
11 15 1 27 -9 11 -9 17 3 29 11 11 12 17 3 26 -11 11 0 16 32 12 7 -2 10 2 6
8 -3 6 -1 11 6 11 7 0 10 3 6 6 -3 4 1 13 9 21 8 9 13 22 10 30 -3 8 -2 12 3
9 16 -10 19 32 4 60 -13 27 -13 27 5 11 19 -17 20 -16 40 30 27 65 53 154 47
164 -3 4 0 11 6 15 8 5 9 3 4 -6 -5 -8 -4 -11 2 -7 8 5 22 50 23 72 0 3 7 19
15 35 9 17 15 36 13 43 -1 6 3 21 9 33 7 11 14 31 16 45 2 13 7 32 10 42 15
39 16 47 5 47 -6 0 -3 9 7 20 10 11 15 28 12 40 -3 13 -1 18 6 13 6 -4 8 0 4
10 -3 9 -2 19 3 22 6 4 10 14 10 23 0 15 -2 15 -11 2 -9 -12 -10 -12 -5 3 3
10 6 23 6 28 0 6 4 8 9 4 6 -3 13 16 16 42 4 27 9 56 12 66 2 10 -1 17 -9 17
-10 0 -11 2 0 8 7 5 15 20 17 33 2 13 8 51 14 84 44 262 45 767 1 1025 -5 30
-12 68 -14 84 -3 16 -11 33 -18 38 -10 6 -10 8 0 8 8 0 10 8 6 26 -7 26 -10
50 -13 87 0 10 -5 16 -10 13 -5 -3 -11 3 -14 14 -3 11 -1 18 4 14 5 -3 9 2 9
10 0 8 -4 17 -10 21 -5 3 -6 13 -3 22 4 11 3 14 -5 9 -8 -5 -10 -2 -6 8 3 9 3
24 -2 34 -4 9 -9 27 -10 40 -2 13 -10 48 -19 77 -8 30 -15 57 -15 60 0 3 -7
22 -16 43 -9 20 -18 48 -20 62 -3 14 -14 43 -24 65 -10 22 -21 48 -24 58 -4
11 -11 15 -18 11 -10 -6 -10 -4 0 8 10 13 8 26 -14 77 -26 59 -28 61 -46 44
-18 -16 -18 -16 -5 11 15 28 12 70 -4 60 -5 -3 -6 1 -3 9 3 8 -2 21 -10 30 -8
8 -12 17 -9 21 4 3 1 6 -5 6 -7 0 -12 -4 -12 -10 0 -5 -5 -10 -12 -10 -6 0 -4
7 5 18 19 21 22 37 5 26 -6 -4 -8 -3 -4 4 6 10 -30 92 -41 92 -2 0 -1 -5 3
-12 4 -7 3 -8 -5 -4 -6 4 -9 15 -6 25 3 11 -8 28 -30 50 -20 18 -33 36 -30 39
3 3 12 -3 21 -14 9 -11 6 -1 -6 24 -11 23 -23 42 -26 42 -2 0 0 -8 5 -18 7
-14 6 -19 -3 -19 -8 0 -12 10 -10 25 3 25 -14 62 -29 62 -4 0 -5 -5 -1 -12 4
-6 3 -8 -3 -5 -6 4 -9 18 -8 31 2 15 -3 27 -12 31 -9 3 -13 8 -10 12 4 3 -1
12 -11 20 -9 8 -11 12 -4 8 6 -3 3 10 -9 29 -12 20 -25 36 -30 36 -5 0 -9 6
-9 14 0 7 -11 25 -25 40 -13 14 -22 26 -19 26 3 0 -7 16 -22 35 -14 19 -30 32
-35 29 -5 -3 -6 1 -3 9 2 7 -5 25 -16 38 -12 13 -19 18 -15 12 3 -7 1 -13 -5
-13 -6 0 -10 9 -8 20 2 13 -8 30 -27 46 -16 14 -23 23 -15 19 8 -3 5 2 -7 11
-13 9 -23 22 -23 30 0 7 -5 16 -12 20 -7 5 -8 3 -3 -6 5 -9 4 -11 -3 -6 -7 4
-12 14 -12 22 0 8 -4 14 -10 14 -5 0 -10 6 -10 14 0 7 -22 34 -49 59 -26 25
-51 53 -55 62 -3 9 -10 13 -16 10 -5 -3 -10 -1 -10 4 0 17 -52 71 -62 65 -4
-3 -6 -9 -4 -13 3 -4 -5 -8 -17 -8 -20 -2 -20 -1 -4 8 14 8 16 14 6 25 -6 7
-15 12 -19 9 -5 -3 -12 -1 -15 5 -4 6 -3 9 2 8 4 -2 10 1 13 7 3 5 -10 20 -29
32 -19 13 -30 23 -25 23 5 0 -4 11 -19 26 -15 14 -32 22 -39 18 -6 -4 -8 -3
-4 4 8 13 -74 84 -91 78 -7 -3 -12 -2 -12 2 3 21 -3 23 -23 6 l-21 -19 18 27
c17 27 17 28 -8 37 -13 5 -27 16 -29 23 -3 7 -18 14 -32 16 -15 1 -25 -2 -22
-6 2 -4 -5 -9 -17 -9 -15 -2 -18 0 -8 6 21 13 -9 21 -34 9 -17 -8 -17 -7 2 9
15 12 20 22 14 32 -5 7 -13 11 -19 7 -6 -3 -13 -2 -16 3 -4 5 -2 12 3 16 12 7
54 -32 47 -44 -3 -5 6 -8 20 -8 l26 0 -28 23 c-16 14 -42 32 -59 41 -16 8 -32
19 -35 22 -3 4 -21 19 -41 34 -25 19 -38 24 -46 16 -8 -8 -13 -7 -18 2 -5 8
-4 10 3 5 7 -4 12 -2 12 3 0 12 -1 12 -38 16 -13 1 -31 10 -40 20 -16 17 -16
17 11 0 15 -9 27 -13 27 -8 0 12 -62 48 -79 45 -8 -2 -10 1 -5 9 4 8 3 10 -5
5 -6 -4 -14 0 -17 8 -3 9 -10 13 -15 10 -5 -3 -9 0 -9 5 0 6 -8 11 -17 11 -16
0 -16 -2 -3 -11 13 -9 13 -10 0 -6 -8 2 -14 11 -12 20 2 12 -34 35 -45 28 -2
0 -12 8 -23 19 -12 12 -26 17 -36 13 -11 -4 -15 -2 -11 4 7 12 -24 14 -39 2
-7 -5 -11 -3 -11 6 0 8 5 11 10 8 5 -3 7 0 5 8 -3 8 -12 13 -21 13 -9 -1 -15
2 -12 6 8 13 -26 21 -40 10 -9 -8 -12 -7 -11 2 0 7 -3 13 -9 13 -5 0 -9 -3 -8
-7 1 -3 -10 -5 -25 -3 -15 2 -32 -1 -39 -7 -8 -6 -11 -4 -8 9 1 10 9 16 16 14
26 -7 34 -6 38 4 6 16 -42 37 -51 22 -5 -8 -8 -7 -8 5 0 15 -18 25 -60 33 -3
1 -30 13 -60 28 -98 48 -238 97 -256 90 -10 -4 -15 -2 -11 4 3 5 1 10 -6 10
-7 0 -29 8 -50 17 -22 10 -36 13 -33 7 4 -5 1 -13 -5 -17 -8 -4 -9 -3 -5 5 9
14 -55 43 -101 44 -18 1 -33 5 -33 9 0 4 -5 8 -11 8 -5 0 -7 -6 -3 -12 4 -7
-3 -4 -16 7 -17 15 -24 17 -27 7 -4 -10 -8 -9 -17 4 -8 11 -28 17 -58 18 -25
0 -44 4 -42 7 2 3 -56 16 -129 28 -73 12 -145 25 -162 28 -29 5 -29 4 -10 -11
11 -8 16 -16 11 -16 -5 0 -17 6 -25 14 -9 8 -41 17 -71 20 -62 7 -387 26 -410
24 -8 -1 -76 -5 -150 -9z m-275 -39 c-3 -5 -12 -10 -18 -10 -7 0 -6 4 3 10 19
12 23 12 15 0z m-42 -17 c-7 -2 -19 -2 -25 0 -7 3 -2 5 12 5 14 0 19 -2 13 -5z
m1024 1 c-3 -3 -12 -4 -19 -1 -8 3 -5 6 6 6 11 1 17 -2 13 -5z m-1070 -10 c-3
-3 -12 -4 -19 -1 -8 3 -5 6 6 6 11 1 17 -2 13 -5z m1110 0 c-3 -3 -12 -4 -19
-1 -8 3 -5 6 6 6 11 1 17 -2 13 -5z m-1234 -11 c-7 -2 -21 -2 -30 0 -10 3 -4
5 12 5 17 0 24 -2 18 -5z m1370 0 c-7 -2 -21 -2 -30 0 -10 3 -4 5 12 5 17 0
24 -2 18 -5z m-1738 -83 c-3 -5 -12 -10 -18 -10 -7 0 -6 4 3 10 19 12 23 12
15 0z m75 -10 c-8 -5 -19 -10 -25 -10 -5 0 -3 5 5 10 8 5 20 10 25 10 6 0 3
-5 -5 -10z m1927 4 c-3 -3 -12 -4 -19 -1 -8 3 -5 6 6 6 11 1 17 -2 13 -5z
m-2167 -78 c0 -7 -50 -13 -55 -7 -2 4 10 8 26 9 16 1 29 1 29 -2z m2455 -7
c-5 -6 -55 0 -55 7 0 3 13 3 29 2 16 -1 28 -5 26 -9z m-2665 -54 c11 -13 10
-14 -4 -9 -9 3 -16 10 -16 15 0 13 6 11 20 -6z m2887 -27 c-3 -8 -6 -5 -6 6
-1 11 2 17 5 13 3 -3 4 -12 1 -19z m-3070 -55 c-9 -2 -15 -8 -12 -13 3 -4 -5
-6 -17 -2 -21 5 -21 6 -2 13 10 4 26 7 34 7 10 0 9 -2 -3 -5z m3370 -98 c0
-20 -4 -19 -17 5 -8 15 -8 18 3 14 8 -3 14 -11 14 -19z m-3548 -11 c14 -12
-19 -1 -35 12 -18 14 -18 14 6 3 14 -6 27 -13 29 -15z m3586 16 c-3 -5 -12
-10 -18 -10 -7 0 -6 4 3 10 19 12 23 12 15 0z m-3731 -88 c2 -4 -4 -8 -14 -8
-10 0 -16 4 -14 8 3 4 9 8 14 8 5 0 11 -4 14 -8z m3860 0 c2 -4 -4 -8 -14 -8
-10 0 -16 4 -14 8 3 4 9 8 14 8 5 0 11 -4 14 -8z m39 -23 c-4 -15 -8 -17 -14
-8 -6 11 4 28 18 29 0 0 -1 -9 -4 -21z m-3950 -4 c-3 -9 -8 -14 -10 -11 -3 3
-2 9 2 15 9 16 15 13 8 -4z m4115 -95 c-2 -5 2 -10 7 -11 6 0 14 -7 18 -15 5
-8 13 -11 19 -8 7 4 8 2 4 -5 -5 -8 -16 -5 -37 10 -16 11 -27 25 -24 30 8 12
16 12 13 -1z m-4298 -20 c0 -5 -5 -10 -11 -10 -5 0 -7 5 -4 10 3 6 8 10 11 10
2 0 4 -4 4 -10z m4304 -29 c-2 -3 -12 3 -22 13 -16 17 -16 18 5 5 12 -7 20
-15 17 -18z m-4359 -11 c-3 -5 -12 -7 -19 -4 -27 11 -26 -25 2 -40 15 -9 23
-15 17 -15 -5 -1 -16 3 -24 8 -8 5 -21 7 -28 4 -12 -5 -12 -7 -1 -15 11 -8 10
-9 -1 -6 -8 2 -15 11 -17 20 -1 11 3 15 14 11 10 -4 13 -2 8 5 -8 14 31 55 45
47 5 -4 7 -10 4 -15z m-173 -112 c-10 -10 -7 -15 10 -24 22 -12 22 -12 -3 -11
-15 1 -26 7 -25 12 2 14 16 35 24 35 3 0 1 -5 -6 -12z m4688 -8 c0 -5 -2 -10
-4 -10 -3 0 -8 5 -11 10 -3 6 -1 10 4 10 6 0 11 -4 11 -10z m-4754 -62 c4 -7
4 -10 -1 -6 -4 4 -15 2 -24 -5 -14 -11 -14 -10 -2 6 16 20 18 21 27 5z m4934
-32 c0 -6 -7 0 -16 12 -8 12 -20 19 -26 16 -7 -5 -8 -2 -4 5 6 9 13 8 27 -5
10 -9 19 -22 19 -28z m-4943 -1 c0 -8 -4 -12 -9 -9 -5 3 -6 10 -3 15 9 13 12
11 12 -6z m4918 6 c3 -5 2 -12 -3 -15 -5 -3 -9 1 -9 9 0 17 3 19 12 6z m-4990
-81 c1 -16 -1 -17 -12 -8 -11 9 -12 13 -1 19 12 8 4 13 -15 10 -5 -1 -5 4 -2
10 10 15 28 -4 30 -31z m5079 32 c3 -5 -1 -9 -9 -9 -8 0 -12 4 -9 9 3 4 7 8 9
8 2 0 6 -4 9 -8z m-4 -26 c0 -2 -7 -9 -15 -16 -13 -11 -14 -10 -9 4 5 14 24
23 24 12z m-5260 -167 c0 -15 -18 -19 -23 -6 -3 8 1 14 9 14 8 0 14 -4 14 -8z
m5447 -6 c0 -8 -6 -9 -19 -2 -10 5 -18 11 -18 12 0 2 8 3 18 3 10 0 19 -6 19
-13z m-5508 -45 c-2 -2 -17 -14 -34 -28 l-30 -25 24 28 c14 15 29 27 34 27 6
0 8 -1 6 -2z m5577 -20 l19 -23 -25 20 c-14 11 -27 21 -29 22 -2 2 0 3 6 3 5
0 18 -10 29 -22z m-5570 -10 c4 -7 3 -8 -4 -4 -7 4 -12 2 -12 -5 0 -7 -3 -10
-6 -6 -6 5 3 27 11 27 2 0 7 -5 11 -12z m5634 -148 c0 -5 -2 -10 -4 -10 -3 0
-8 5 -11 10 -3 6 -1 10 4 10 6 0 11 -4 11 -10z m-5784 -22 c4 -7 4 -10 -1 -6
-11 11 -36 -27 -30 -45 3 -7 -2 -20 -12 -28 -16 -13 -17 -12 -5 3 8 9 11 22 7
27 -3 6 2 22 11 36 19 29 20 29 30 13z m5859 -8 c-3 -5 0 -12 6 -15 5 -4 8
-14 5 -22 -4 -9 -1 -23 6 -32 12 -14 11 -15 -5 -2 -10 8 -16 20 -13 28 3 8 -1
25 -10 39 -15 22 -15 24 0 18 9 -3 14 -10 11 -14z m-5948 -91 c-12 -15 -26
-28 -31 -28 -5 -1 0 9 12 22 11 12 21 25 21 30 1 4 1 13 1 20 0 8 3 8 9 -2 7
-10 3 -23 -12 -42z m6007 19 c-9 -14 -23 2 -17 18 4 12 8 13 14 3 4 -7 5 -17
3 -21z m23 -50 c-3 -8 -6 -5 -6 6 -1 11 2 17 5 13 3 -3 4 -12 1 -19z m30 -22
c0 -8 -6 -12 -15 -9 -11 5 -11 7 0 14 7 5 13 9 14 9 0 0 1 -6 1 -14z m44 -63
c13 -16 12 -17 -3 -4 -10 7 -18 15 -18 17 0 8 8 3 21 -13z m-6196 -3 c-3 -5
-12 -10 -18 -10 -7 0 -6 4 3 10 19 12 23 12 15 0z m-43 -62 c-8 -8 -9 -4 -5
13 4 13 8 18 11 10 2 -7 -1 -18 -6 -23z m55 5 c1 -22 -1 -24 -8 -10 -6 9 -7
22 -4 27 9 14 10 13 12 -17z m6231 -9 c-4 -3 -12 5 -18 18 -12 22 -12 22 6 6
10 -10 15 -20 12 -24z m-57 -1 c-12 -20 -14 -14 -5 12 4 9 9 14 11 11 3 -2 0
-13 -6 -23z m-6243 -38 c-3 -3 -9 2 -12 12 -6 14 -5 15 5 6 7 -7 10 -15 7 -18z
m-18 -70 c14 -19 14 -19 -2 -6 -10 7 -18 18 -18 24 0 6 1 8 3 6 1 -2 9 -13 17
-24z m-86 -161 c3 -8 2 -12 -4 -9 -6 3 -10 10 -10 16 0 14 7 11 14 -7z m-30
-2 c3 -5 -1 -9 -9 -9 -8 0 -12 4 -9 9 3 4 7 8 9 8 2 0 6 -4 9 -8z m6606 -7 c0
-2 -9 -3 -19 -2 -11 0 -18 5 -15 9 4 6 34 0 34 -7z m40 -109 c0 -6 -4 -5 -9 3
-5 7 -13 11 -19 7 -9 -5 -9 2 -2 34 1 9 30 -33 30 -44z m-5523 -76 c209 0 313
4 303 10 -9 6 -10 10 -3 10 6 0 15 -5 18 -10 4 -6 9 -8 13 -6 4 2 6 -357 4
-797 -3 -825 1 -938 35 -951 8 -4 19 -4 24 -1 5 4 6 -1 3 -10 -5 -12 -10 -13
-20 -4 -11 9 -12 6 -3 -20 6 -17 16 -31 22 -31 6 0 7 -3 4 -6 -12 -12 14 -46
30 -40 13 5 14 4 3 -9 -8 -10 -9 -15 -1 -15 6 0 11 -5 11 -11 0 -6 15 -25 33
-43 42 -41 103 -84 93 -65 -4 7 -1 6 8 -5 11 -14 22 -17 43 -12 21 5 24 4 13
-4 -12 -8 -10 -10 10 -10 15 0 32 -6 38 -12 12 -12 164 -17 247 -8 29 3 29 3
7 13 -15 7 -30 7 -50 -2 -25 -10 -26 -10 -8 4 11 8 25 15 32 15 7 0 21 3 31 6
15 5 16 4 3 -6 -13 -10 -11 -11 8 -7 12 3 20 1 16 -4 -3 -5 -1 -9 5 -9 5 0 13
5 16 10 4 6 11 7 17 4 6 -4 9 -1 6 7 -3 8 -14 13 -24 11 -16 -2 -16 -1 -4 7
10 7 20 5 32 -6 17 -15 18 -15 18 0 0 10 5 17 11 17 5 0 7 -5 4 -10 -4 -6 3
-6 18 1 21 9 24 17 22 50 -2 35 -1 38 13 27 13 -11 15 -10 9 4 -4 12 -2 15 9
11 13 -5 12 -9 -5 -27 -25 -26 -26 -35 -7 -32 26 4 47 28 41 50 -3 12 -2 15 1
9 9 -19 20 -16 38 12 15 23 15 25 1 25 -10 0 -13 -5 -9 -12 4 -7 3 -8 -5 -4
-15 9 -5 26 16 26 10 0 14 6 10 20 -3 12 -1 18 5 14 9 -6 37 25 49 56 4 8 1
21 -5 29 -8 11 -8 13 2 7 16 -10 28 24 36 100 5 43 3 54 -4 39 -9 -18 -10 -17
-5 5 9 52 6 1583 -3 1589 -6 3 134 5 310 3 245 -2 324 0 335 10 12 10 18 9 29
-7 8 -10 14 -15 14 -9 1 12 30 -27 30 -40 0 -5 -7 -1 -15 10 -14 17 -14 14 0
-21 23 -57 44 -87 57 -79 7 4 8 3 4 -5 -4 -6 -12 -8 -18 -5 -5 4 -4 -4 3 -17
14 -26 16 -31 18 -55 0 -8 5 -12 11 -9 6 3 7 -1 4 -9 -3 -9 -1 -16 5 -16 6 0
10 -3 10 -7 -4 -25 2 -43 13 -37 6 4 8 3 5 -4 -9 -14 3 -43 14 -36 5 3 6 -1 3
-9 -3 -8 0 -18 5 -22 6 -3 9 -11 5 -16 -3 -6 5 -8 20 -5 14 3 26 0 26 -6 0 -5
-7 -8 -15 -5 -8 4 -17 2 -20 -3 -4 -6 -1 -10 5 -10 6 0 9 -4 6 -9 -3 -4 4 -28
15 -52 29 -65 36 -74 50 -71 10 2 10 0 -1 -12 -10 -13 -10 -16 3 -16 9 0 19
-9 22 -20 3 -11 11 -20 17 -20 6 0 8 -3 5 -7 -4 -3 -2 -12 4 -20 9 -10 8 -17
-1 -28 -10 -12 -9 -15 5 -15 13 0 15 -3 7 -13 -12 -14 10 -52 22 -40 4 4 4 0
1 -9 -4 -9 -1 -19 4 -23 6 -3 9 -9 7 -13 -2 -4 3 -14 12 -22 14 -13 15 -12 9
3 -3 9 -1 19 5 23 7 5 8 2 3 -6 -6 -10 -4 -12 8 -7 9 3 19 1 23 -5 5 -7 3 -8
-5 -4 -8 5 -14 0 -18 -13 -3 -11 -9 -18 -14 -15 -5 3 -6 -2 -3 -10 3 -9 10
-16 16 -16 5 0 6 -5 2 -12 -5 -7 -2 -9 8 -5 12 4 15 0 13 -19 -1 -13 4 -29 11
-35 8 -6 11 -15 8 -20 -3 -5 0 -9 6 -9 6 0 8 -4 5 -10 -3 -5 1 -10 9 -10 9 0
16 -5 16 -11 0 -5 -4 -7 -10 -4 -6 3 -7 -1 -4 -9 7 -19 21 -21 26 -4 3 8 7 6
11 -5 3 -9 1 -19 -5 -23 -7 -5 -8 -2 -3 6 5 9 4 11 -3 6 -9 -5 -7 -16 6 -38 9
-17 24 -44 32 -60 9 -16 19 -26 23 -22 4 4 7 -1 7 -12 1 -18 1 -18 11 -1 6 10
8 21 5 24 -3 3 3 18 14 32 23 33 38 87 22 77 -8 -5 -10 -1 -5 9 5 13 7 14 14
3 8 -12 13 -4 10 15 0 4 3 7 8 7 5 0 11 7 14 14 4 11 1 14 -11 10 -9 -2 -7 1
6 7 12 7 23 16 23 21 1 4 2 12 3 16 0 5 9 16 19 26 12 12 14 22 8 30 -6 7 -4
18 6 31 15 19 15 19 9 -5 -6 -25 -6 -25 5 -2 7 12 16 22 21 22 5 0 6 5 3 10
-4 6 -10 8 -15 5 -5 -3 -11 -1 -14 4 -3 4 2 8 12 8 34 0 43 3 37 13 -3 6 -1
10 5 10 7 0 10 7 6 15 -3 8 -2 14 2 14 18 -3 32 2 32 12 0 5 -6 7 -12 3 -8 -4
-10 -3 -5 2 5 5 12 9 15 9 15 0 32 17 27 26 -4 5 -1 9 6 9 19 0 81 69 73 82
-4 7 -3 8 5 4 15 -10 43 13 37 30 -3 7 2 12 12 11 21 -1 68 29 76 49 3 8 2 13
-3 10 -4 -3 -17 1 -27 10 -18 14 -18 15 2 5 12 -6 24 -7 28 -3 4 3 11 0 16 -8
6 -8 10 -10 10 -4 0 7 9 14 20 17 21 5 28 37 9 37 -6 0 -9 -6 -6 -13 3 -8 -1
-14 -9 -14 -8 0 -14 2 -14 4 0 9 62 63 71 63 6 0 1 -9 -12 -20 -14 -11 -18
-19 -11 -20 7 0 10 -5 7 -10 -3 -6 11 0 31 12 21 12 43 23 49 24 5 1 30 11 54
22 34 16 39 21 25 25 -12 3 -8 5 11 5 31 0 40 2 115 22 123 33 278 44 413 29
61 -7 132 -13 157 -12 29 0 38 -2 25 -7 -17 -6 -14 -8 15 -14 19 -4 43 -7 52
-7 10 0 20 -4 23 -9 3 -4 15 -6 28 -3 16 3 18 2 9 -5 -13 -9 -1 -15 48 -27 3
0 16 -7 30 -14 24 -14 24 -13 10 5 -14 17 -13 18 1 7 9 -7 19 -10 23 -6 4 4 4
-1 0 -12 -7 -18 -6 -18 9 -6 15 12 17 12 12 0 -5 -15 79 -72 89 -61 15 15 33
8 32 -11 -1 -14 7 -23 24 -28 14 -4 21 -7 16 -8 -5 -1 -3 -8 4 -16 7 -9 19
-14 27 -11 7 3 13 2 13 -2 0 -5 7 -17 16 -28 8 -10 13 -14 10 -8 -3 7 1 15 10
18 8 3 12 2 9 -4 -3 -6 -2 -10 4 -10 6 0 16 -10 22 -22 l12 -23 -24 20 c-27
22 61 -73 104 -113 15 -14 27 -31 27 -38 0 -7 10 -20 23 -29 12 -8 22 -19 22
-23 0 -4 3 -6 6 -5 4 1 15 -8 25 -20 17 -19 17 -20 1 -8 -28 22 -30 7 -3 -22
13 -14 21 -28 18 -31 -3 -3 2 -6 11 -6 10 0 14 6 11 14 -3 8 -2 16 3 19 4 3 8
-16 8 -41 -1 -55 3 -72 17 -72 6 0 7 8 3 18 -5 13 -4 14 6 5 9 -10 10 -15 0
-27 -8 -10 -9 -16 -1 -21 5 -3 10 -15 10 -26 0 -11 7 -19 18 -19 12 0 13 -3 5
-8 -10 -6 -9 -14 1 -34 8 -15 12 -29 8 -32 -3 -3 -1 -6 4 -6 5 0 10 -8 10 -17
1 -10 9 -56 19 -103 25 -114 27 -500 3 -500 -5 0 -8 -9 -8 -20 0 -10 -11 -53
-24 -95 -13 -41 -20 -75 -14 -75 5 0 6 -5 3 -10 -4 -6 -11 -8 -16 -4 -6 3 -9
0 -8 -7 1 -8 -3 -27 -10 -43 -10 -24 -9 -32 6 -50 18 -21 18 -21 -3 -3 -32 26
-36 21 -29 -34 5 -38 4 -50 -4 -44 -7 3 -9 15 -6 25 9 29 -11 32 -24 4 -8 -18
-8 -23 0 -18 8 4 8 0 0 -15 -7 -11 -14 -21 -17 -21 -3 0 -2 6 2 13 4 7 3 9 -2
4 -5 -5 -9 -12 -10 -15 -1 -15 -46 -82 -55 -82 -5 0 -9 -6 -9 -13 0 -7 -9 -18
-20 -25 -11 -7 -20 -17 -20 -23 0 -8 6 -7 18 2 15 12 15 12 -1 -7 -15 -18 -15
-22 -4 -27 8 -3 21 0 28 6 11 10 11 9 0 -5 -7 -10 -17 -16 -21 -13 -5 3 -11 1
-14 -4 -8 -13 19 -21 33 -10 8 6 8 5 1 -3 -6 -7 -25 -13 -43 -13 -22 -1 -31
-6 -29 -16 2 -8 0 -10 -5 -6 -4 5 -8 13 -8 18 0 5 -4 8 -10 7 -5 -2 -9 -7 -7
-11 1 -5 -2 -6 -7 -3 -5 3 -21 -9 -37 -26 -15 -18 -30 -33 -33 -33 -13 0 -90
-68 -86 -76 3 -4 0 -11 -6 -15 -8 -4 -9 -3 -5 4 11 18 -5 14 -39 -8 -26 -17
-27 -24 -4 -22 3 1 6 -6 6 -14 0 -8 -7 -14 -14 -14 -8 0 -12 4 -9 9 10 15 -22
20 -34 5 -7 -8 -19 -14 -27 -14 -10 0 -13 -6 -9 -16 5 -13 4 -14 -7 -6 -17 14
-69 -7 -63 -24 3 -7 -6 -10 -22 -8 -15 1 -31 -1 -37 -5 -5 -4 -31 -14 -57 -21
-26 -7 -46 -15 -44 -19 2 -3 -10 -7 -27 -7 -36 -2 -100 -11 -137 -20 -45 -10
-342 -3 -385 9 -11 3 -47 8 -80 12 -32 4 -66 10 -75 15 -9 5 -28 7 -41 4 -17
-4 -20 -3 -11 4 11 7 8 11 -12 14 -32 6 -43 -7 -19 -21 10 -6 13 -11 6 -11 -6
0 -15 5 -18 10 -3 6 -11 10 -16 10 -6 0 -7 -4 -4 -10 4 -6 -1 -7 -11 -3 -14 5
-13 8 7 19 24 14 20 18 -16 15 -15 -1 -17 0 -7 7 10 7 5 11 -20 17 -44 10 -40
9 -68 25 -14 8 -33 15 -44 17 -16 3 -17 1 -5 -14 13 -16 12 -17 -3 -5 -10 8
-16 17 -15 20 1 4 -2 8 -6 9 -4 1 -15 9 -24 18 -8 9 -22 14 -30 11 -8 -3 -11
-2 -8 3 3 5 1 12 -5 16 -10 6 -18 -18 -23 -70 -2 -17 -7 -36 -11 -43 -4 -7 -4
-17 -1 -22 4 -6 2 -16 -3 -23 -5 -7 -19 -66 -31 -132 -12 -66 -26 -137 -32
-157 -5 -20 -9 -40 -8 -45 1 -4 -1 -16 -6 -26 -4 -9 -5 -26 -2 -37 3 -11 1
-18 -4 -14 -8 5 -10 -7 -13 -63 -1 -10 -4 -20 -8 -23 -4 -3 -8 -23 -9 -45 -1
-22 -6 -44 -9 -50 -10 -14 -31 -136 -25 -146 3 -4 1 -10 -4 -13 -8 -5 -24 -79
-25 -116 -1 -8 -4 -19 -8 -25 -10 -17 -13 -69 -4 -84 7 -10 5 -12 -3 -6 -7 4
-5 -5 5 -21 12 -18 14 -25 5 -20 -9 6 -12 5 -9 -5 3 -8 12 -13 19 -11 8 2 10
0 6 -4 -11 -11 -38 -14 -32 -4 3 5 1 11 -5 15 -5 3 -10 0 -10 -7 0 -10 -70
-13 -359 -13 -198 0 -351 3 -340 7 10 4 19 12 19 18 0 6 -4 8 -10 5 -5 -3 -10
-1 -10 4 0 6 5 11 11 11 5 0 8 4 5 9 -4 5 -1 11 4 13 6 2 12 19 14 38 2 19 7
42 10 51 4 9 8 31 10 50 2 19 6 42 11 52 4 9 4 29 1 43 -4 15 -3 23 2 20 9 -5
51 155 57 214 1 14 6 33 10 43 4 9 5 26 2 37 -3 11 -1 18 4 14 5 -3 9 1 9 10
0 8 -6 17 -12 19 -8 3 -6 6 5 6 21 1 22 11 2 37 -8 10 -14 24 -14 29 0 6 4 2
10 -8 15 -26 31 -10 24 25 -5 22 -4 29 5 23 8 -5 11 -1 9 11 -1 11 2 28 7 39
5 11 9 39 9 62 0 22 3 37 6 31 7 -11 29 92 36 161 2 25 8 50 13 56 5 6 6 22 3
35 -4 14 -2 21 4 17 5 -3 20 50 36 131 14 75 28 146 31 157 2 11 14 61 26 110
31 135 32 142 20 125 -5 -8 -10 -10 -10 -4 0 5 5 15 12 22 16 16 -39 95 -61
87 -13 -5 -14 -4 -3 7 10 10 8 16 -10 31 -13 10 -16 16 -8 12 8 -4 6 1 -4 9
-11 9 -17 16 -13 16 4 0 3 9 -3 20 -7 14 -18 18 -40 15 -17 -2 -28 0 -25 5 3
5 12 7 19 4 8 -3 17 0 22 7 4 8 3 10 -4 5 -8 -5 -12 0 -12 13 0 12 -5 21 -11
21 -5 0 -7 -6 -3 -12 5 -9 2 -8 -10 1 -11 9 -13 18 -7 24 14 14 2 40 -14 27
-9 -8 -12 -4 -10 15 2 14 -1 23 -5 20 -5 -3 -11 -1 -15 5 -10 16 -27 0 -20
-19 5 -12 4 -13 -6 -4 -10 10 -9 15 0 27 7 8 10 20 6 26 -3 5 -1 10 4 10 6 0
11 -7 11 -15 0 -8 5 -15 11 -15 12 0 -26 69 -49 88 -9 6 -12 12 -8 12 4 0 -3
18 -15 40 -13 22 -26 40 -31 40 -9 0 -3 -93 7 -111 5 -7 4 -10 -3 -5 -7 4 -13
-11 -17 -41 -3 -27 -11 -79 -17 -118 -7 -38 -11 -80 -11 -92 1 -13 -3 -23 -9
-23 -5 0 -6 -5 -3 -10 4 -6 2 -16 -3 -23 -14 -19 -21 -56 -11 -63 5 -3 9 -13
8 -22 0 -14 -2 -13 -9 3 l-8 20 -7 -20 c-12 -36 -26 -69 -45 -107 -10 -21 -16
-51 -14 -70 3 -23 1 -29 -5 -18 -6 8 -7 18 -5 22 3 4 3 8 0 8 -12 0 -46 -81
-40 -93 4 -7 4 -9 -1 -5 -9 9 -111 -122 -107 -139 1 -6 -2 -14 -8 -18 -19 -12
-10 -27 13 -22 22 6 22 6 2 -9 -11 -8 -21 -10 -23 -5 -2 5 -9 9 -15 7 -7 -1
-9 -1 -4 1 4 3 7 9 7 15 0 6 -6 6 -15 -2 -8 -7 -15 -19 -15 -26 0 -8 -5 -13
-11 -12 -6 2 -14 -3 -16 -10 -3 -7 1 -10 10 -6 18 7 32 -12 16 -22 -8 -5 -9
-3 -4 6 6 10 4 12 -8 7 -9 -3 -19 -2 -23 4 -4 6 -11 6 -20 -2 -7 -6 -11 -15
-8 -20 3 -5 0 -8 -7 -7 -7 2 -15 -5 -17 -16 -2 -10 0 -16 5 -13 5 4 10 0 10
-8 0 -19 -5 -19 -22 -1 -8 7 -11 17 -7 22 4 4 -11 -5 -33 -21 -22 -16 -42 -32
-45 -35 -6 -8 -51 -33 -62 -36 -5 -1 -14 -2 -20 -3 -7 -2 -4 -7 7 -12 17 -8
16 -9 -7 -6 -18 3 -28 0 -29 -9 -3 -27 -4 -32 -10 -38 -3 -4 -12 0 -18 8 -9
11 -9 16 0 22 8 5 9 3 4 -6 -5 -9 -4 -11 4 -6 21 13 1 27 -22 14 -12 -7 -26
-13 -32 -15 -66 -17 -101 -29 -105 -33 -3 -3 -16 -6 -30 -7 -14 0 -34 -3 -45
-6 -11 -3 -27 -6 -35 -7 -8 -1 -4 -6 10 -10 23 -7 23 -8 3 -9 -12 -1 -25 4
-29 10 -4 6 -20 8 -39 5 -40 -8 -342 -7 -405 0 -58 7 -72 10 -90 17 -8 4 -26
8 -40 11 -14 2 -38 9 -55 16 -37 15 -135 22 -135 10 0 -5 -7 -6 -17 -3 -9 4
-14 2 -10 -3 3 -6 -3 -10 -13 -11 -11 -1 -22 2 -25 7 -2 4 3 7 13 6 10 0 17 6
16 16 -1 12 5 15 27 13 16 -2 29 0 29 5 0 10 -21 14 -49 11 -7 -2 -10 2 -6 8
3 6 0 9 -7 6 -8 -3 -22 2 -33 10 -19 16 -19 16 3 5 12 -6 22 -8 22 -5 0 3 -25
18 -56 32 -30 14 -58 32 -61 40 -5 14 -8 13 -21 -3 -12 -16 -14 -16 -9 -2 5
13 -14 37 -66 88 -39 38 -72 70 -72 70 0 0 -1 -9 -2 -21 -1 -15 3 -19 13 -15
10 4 12 2 8 -6 -5 -7 -3 -8 6 -3 8 5 11 4 6 -3 -4 -6 -14 -8 -23 -5 -10 4 -14
2 -10 -4 9 -14 -31 -9 -43 5 -7 8 -7 9 1 3 14 -11 41 -3 33 10 -3 5 -9 7 -14
4 -4 -3 -14 3 -21 13 -11 14 -11 15 0 5 7 -6 20 -9 28 -6 11 5 11 9 -4 27 -16
19 -16 19 0 7 10 -8 17 -9 17 -3 0 18 -37 34 -44 19 -3 -6 -3 0 0 14 4 18 1
28 -10 32 -9 4 -16 12 -16 18 0 6 -9 20 -21 30 -11 10 -18 23 -15 28 4 6 -2
19 -13 30 -11 11 -17 22 -14 25 3 3 -3 4 -14 2 -13 -3 -19 2 -19 14 0 14 3 16
13 8 7 -6 2 14 -12 43 -14 30 -25 60 -25 67 0 7 -3 11 -7 9 -5 -3 -9 9 -10 26
-1 17 -8 34 -15 39 -7 4 -10 8 -6 8 4 0 2 15 -3 33 -6 17 -12 41 -14 52 -3 11
-12 54 -22 95 -15 67 -17 173 -20 943 -3 859 -3 868 16 857 13 -6 135 -10 338
-10z m2030 -12 c-3 -7 -5 -2 -5 12 0 14 2 19 5 13 2 -7 2 -19 0 -25z m-3283
-84 c3 -8 2 -12 -4 -9 -6 3 -10 10 -10 16 0 14 7 11 14 -7z m-10 -30 c3 -8 2
-12 -4 -9 -6 3 -10 10 -10 16 0 14 7 11 14 -7z m6876 6 c0 -5 -2 -10 -4 -10
-3 0 -8 5 -11 10 -3 6 -1 10 4 10 6 0 11 -4 11 -10z m-3515 -139 c3 -5 1 -12
-5 -16 -5 -3 -10 1 -10 9 0 18 6 21 15 7z m-3415 -46 c0 -5 -5 -3 -10 5 -5 8
-10 20 -10 25 0 6 5 3 10 -5 5 -8 10 -19 10 -25z m6971 8 c-12 -20 -14 -14 -5
12 4 9 9 14 11 11 3 -2 0 -13 -6 -23z m35 -5 c5 -7 3 -8 -6 -3 -9 5 -10 1 -6
-16 6 -20 5 -21 -4 -6 -6 9 -8 22 -5 27 8 13 12 13 21 -2z m-7039 -30 c-3 -8
-6 -5 -6 6 -1 11 2 17 5 13 3 -3 4 -12 1 -19z m4696 15 c-7 -2 -19 -2 -25 0
-7 3 -2 5 12 5 14 0 19 -2 13 -5z m-133 -17 c0 -2 -9 -6 -20 -9 -11 -3 -18 -1
-14 4 5 9 34 13 34 5z m877 -2 c-3 -3 -12 -4 -19 -1 -8 3 -5 6 6 6 11 1 17 -2
13 -5z m-5460 -36 c-3 -7 -5 -2 -5 12 0 14 2 19 5 13 2 -7 2 -19 0 -25z m3553
-27 c-13 -25 -13 -34 0 -26 6 3 10 -1 10 -9 0 -9 -4 -16 -10 -16 -5 0 -10 5
-10 11 0 5 -5 7 -11 3 -6 -3 -3 8 5 25 9 17 19 31 22 31 2 0 0 -9 -6 -19z
m841 12 c-10 -4 -10 -7 -1 -13 9 -5 8 -9 -3 -13 -13 -5 -16 5 -8 31 1 1 7 2
14 1 8 0 8 -2 -2 -6z m1245 -19 c19 -15 19 -15 -1 -6 -11 5 -27 12 -35 15 -13
5 -13 6 1 6 8 1 24 -6 35 -15z m-17 -18 c8 -10 9 -16 1 -21 -5 -3 -10 1 -10 9
0 8 -8 17 -17 19 -15 4 -15 5 -2 6 9 0 22 -5 28 -13z m28 -31 c0 -8 -4 -12 -9
-9 -5 3 -6 10 -3 15 9 13 12 11 12 -6z m79 -25 c0 -12 -4 -16 -9 -11 -5 5 -6
14 -3 20 10 15 12 14 12 -9z m-1397 -27 c2 -1 -5 -1 -16 0 -11 0 -20 7 -20 14
0 10 4 10 16 1 9 -7 18 -13 20 -15z m-4381 -48 c-3 -3 -9 2 -12 12 -6 14 -5
15 5 6 7 -7 10 -15 7 -18z m5924 0 c4 -5 8 -14 8 -20 0 -5 -4 -3 -10 5 -5 8
-12 11 -16 7 -4 -3 -1 -13 6 -22 7 -9 11 -18 8 -20 -3 -3 -11 7 -19 23 -8 15
-18 30 -24 35 -5 4 1 6 15 5 14 -2 28 -7 32 -13z m1265 -47 c-3 -7 -5 -2 -5
12 0 14 2 19 5 13 2 -7 2 -19 0 -25z m-7 -33 c0 -5 -5 -3 -10 5 -5 8 -10 20
-10 25 0 6 5 3 10 -5 5 -8 10 -19 10 -25z m-2977 -2 c-3 -7 -8 -13 -12 -13 -4
0 -8 6 -8 13 0 8 6 14 13 14 7 0 10 -6 7 -14z m1762 -33 c3 -5 2 -10 -4 -10
-5 0 -13 5 -16 10 -3 6 -2 10 4 10 5 0 13 -4 16 -10z m-1835 -36 c0 -8 -19
-13 -24 -6 -3 5 1 9 9 9 8 0 15 -2 15 -3z m-390 -14 c0 -5 -2 -10 -4 -10 -3 0
-8 5 -11 10 -3 6 -1 10 4 10 6 0 11 -4 11 -10z m2321 -83 c-10 -9 -11 -8 -5 6
3 10 9 15 12 12 3 -3 0 -11 -7 -18z m-6154 -109 c-3 -7 -5 -2 -5 12 0 14 2 19
5 13 2 -7 2 -19 0 -25z m4061 -63 c-3 -3 -9 2 -12 12 -6 14 -5 15 5 6 7 -7 10
-15 7 -18z m-4061 -17 c-3 -8 -6 -5 -6 6 -1 11 2 17 5 13 3 -3 4 -12 1 -19z
m7350 0 c-3 -8 -6 -5 -6 6 -1 11 2 17 5 13 3 -3 4 -12 1 -19z m16 -38 c-3 -12
-8 -19 -11 -16 -5 6 5 36 12 36 2 0 2 -9 -1 -20z m-7366 -22 c-3 -7 -5 -2 -5
12 0 14 2 19 5 13 2 -7 2 -19 0 -25z m6321 12 c-7 -10 -14 -18 -15 -16 -6 6 9
36 18 36 5 0 4 -9 -3 -20z m-2348 6 c0 -2 -7 -7 -16 -10 -8 -3 -12 -2 -9 4 6
10 25 14 25 6z m2373 -11 c-3 -9 -8 -14 -10 -11 -3 3 -2 9 2 15 9 16 15 13 8
-4z m-6366 -27 c-3 -8 -6 -5 -6 6 -1 11 2 17 5 13 3 -3 4 -12 1 -19z m4030 6
c3 -8 1 -25 -5 -37 -10 -20 -11 -19 -5 7 4 19 1 31 -8 37 -11 7 -11 9 -1 9 7
0 15 -7 19 -16z m-22 -14 c3 -5 1 -10 -4 -10 -6 0 -11 5 -11 10 0 6 2 10 4 10
3 0 8 -4 11 -10z m2312 -12 c-3 -8 -6 -5 -6 6 -1 11 2 17 5 13 3 -3 4 -12 1
-19z m1080 0 c-3 -8 -6 -5 -6 6 -1 11 2 17 5 13 3 -3 4 -12 1 -19z m-1047 -48
c-6 -12 -14 -20 -17 -17 -2 3 1 14 8 26 17 26 24 19 9 -9z m-2797 -430 c-6 -7
-23 23 -23 40 0 8 6 4 13 -10 8 -14 12 -27 10 -30z m-1676 -32 c-3 -8 -6 -5
-6 6 -1 11 2 17 5 13 3 -3 4 -12 1 -19z m1640 -70 c-3 -8 -6 -5 -6 6 -1 11 2
17 5 13 3 -3 4 -12 1 -19z m20 -25 c-3 -10 -5 -4 -5 12 0 17 2 24 5 18 2 -7 2
-21 0 -30z m20 -35 c-3 -8 -6 -5 -6 6 -1 11 2 17 5 13 3 -3 4 -12 1 -19z
m-1600 -60 c-3 -8 -6 -5 -6 6 -1 11 2 17 5 13 3 -3 4 -12 1 -19z m-758 -78
c11 -22 10 -23 -2 -8 -8 10 -17 15 -21 11 -4 -4 -4 1 0 10 7 20 7 20 23 -13z
m5138 8 c-3 -8 -6 -5 -6 6 -1 11 2 17 5 13 3 -3 4 -12 1 -19z m28 -30 c5 4 5
2 1 -5 -8 -14 -36 -6 -36 9 0 7 5 6 13 -1 8 -6 18 -7 22 -3z m-4325 -33 c-8
-10 -8 -14 2 -17 7 -3 8 -7 2 -11 -5 -3 -15 3 -22 14 -10 15 -10 19 0 17 7 -2
12 3 10 10 -1 8 2 11 8 7 8 -5 8 -11 0 -20z m4277 3 c-3 -8 -6 -5 -6 6 -1 11
2 17 5 13 3 -3 4 -12 1 -19z m-5097 -13 c0 -8 -2 -15 -4 -15 -2 0 -6 7 -10 15
-3 8 -1 15 4 15 6 0 10 -7 10 -15z m2257 -7 c-3 -8 -6 -5 -6 6 -1 11 2 17 5
13 3 -3 4 -12 1 -19z m2868 -37 c-3 -3 -10 1 -15 9 -8 13 -10 13 -10 1 0 -8
-3 -12 -6 -8 -3 3 -3 11 1 17 5 8 11 8 21 -1 8 -6 12 -14 9 -18z m-5145 9 c0
-5 -5 -10 -11 -10 -5 0 -7 5 -4 10 3 6 8 10 11 10 2 0 4 -4 4 -10z m2614 2 c3
-5 -1 -9 -9 -9 -8 0 -15 4 -15 9 0 4 4 8 9 8 6 0 12 -4 15 -8z m-3814 -50 c0
-15 -2 -15 -10 -2 -13 20 -13 33 0 25 6 -3 10 -14 10 -23z m2227 22 c-3 -3
-12 -4 -19 -1 -8 3 -5 6 6 6 11 1 17 -2 13 -5z m238 -4 c-11 -5 -27 -9 -35 -9
-9 0 -8 4 5 9 11 5 27 9 35 9 9 0 8 -4 -5 -9z m-2418 -22 c-3 -8 -6 -5 -6 6
-1 11 2 17 5 13 3 -3 4 -12 1 -19z m2186 5 c-7 -2 -21 -2 -30 0 -10 3 -4 5 12
5 17 0 24 -2 18 -5z m30 -20 c-7 -2 -19 -2 -25 0 -7 3 -2 5 12 5 14 0 19 -2
13 -5z m5120 -13 c3 -11 1 -18 -4 -14 -5 3 -9 12 -9 20 0 20 7 17 13 -6z
m-7366 -52 c-3 -8 -6 -5 -6 6 -1 11 2 17 5 13 3 -3 4 -12 1 -19z m7350 0 c-3
-8 -6 -5 -6 6 -1 11 2 17 5 13 3 -3 4 -12 1 -19z m-1084 -8 c-8 -30 -21 -34
-15 -5 2 14 8 25 12 25 5 0 6 -9 3 -20z m-5005 -35 c-3 -30 -2 -29 -19 -8 -10
11 -10 14 -1 9 7 -4 12 -1 12 8 0 9 2 16 5 16 3 0 4 -11 3 -25z m2123 -27
c-10 -11 -11 -10 -6 5 4 10 2 17 -4 17 -6 0 -11 5 -11 12 0 8 6 6 17 -5 14
-14 15 -19 4 -29z m396 0 c-3 -8 -6 -5 -6 6 -1 11 2 17 5 13 3 -3 4 -12 1 -19z
m-3780 -20 c-3 -7 -5 -2 -5 12 0 14 2 19 5 13 2 -7 2 -19 0 -25z m1244 -11
c-10 -9 -11 -8 -5 6 3 10 9 15 12 12 3 -3 0 -11 -7 -18z m44 -7 c-3 -5 -12
-10 -18 -10 -7 0 -6 4 3 10 19 12 23 12 15 0z m2472 -12 c-3 -8 -6 -5 -6 6 -1
11 2 17 5 13 3 -3 4 -12 1 -19z m-10 -40 c-3 -8 -6 -5 -6 6 -1 11 2 17 5 13 3
-3 4 -12 1 -19z m-2413 -26 c3 -5 -1 -9 -9 -9 -8 0 -12 4 -9 9 3 4 7 8 9 8 2
0 6 -4 9 -8z m1954 -19 c-17 -40 -21 -43 -38 -32 -13 9 -13 10 0 6 9 -2 20 7
27 25 7 15 14 28 17 28 3 0 0 -12 -6 -27z m6 -61 c2 -4 -9 -7 -24 -7 -16 -1
-27 2 -25 5 5 8 44 10 49 2z m2716 -45 c0 -4 4 -6 8 -3 5 3 8 -4 7 -16 -1 -14
-9 -22 -26 -24 -23 -4 -24 -3 -4 12 17 12 18 16 5 24 -8 5 -18 6 -22 4 -4 -3
-8 -1 -8 5 0 5 9 9 20 8 11 -1 20 -5 20 -10z m-4450 -121 c-11 -11 -33 11 -25
25 3 3 -4 14 -15 24 -21 19 -28 7 -8 -13 9 -9 9 -12 0 -12 -7 0 -12 5 -12 11
0 5 -4 8 -9 4 -5 -3 -13 0 -17 6 -4 7 -3 9 3 6 16 -10 23 18 10 34 -7 8 9 -6
35 -31 33 -30 45 -47 38 -54z m4348 62 c-8 -12 -21 -24 -29 -27 -8 -2 -3 8 11
22 31 33 37 34 18 5z m1371 -31 c0 -21 -1 -21 -9 -2 -12 28 -12 37 0 30 6 -3
10 -16 9 -28z m-36 -12 c-3 -9 -8 -14 -10 -11 -3 3 -2 9 2 15 9 16 15 13 8 -4z
m-5752 -12 c13 -16 12 -17 -3 -4 -17 13 -22 21 -14 21 2 0 10 -8 17 -17z
m1633 -4 c-3 -5 -10 -7 -15 -3 -5 3 -7 10 -3 15 3 5 10 7 15 3 5 -3 7 -10 3
-15z m2766 17 c0 -2 -9 -6 -20 -9 -11 -3 -18 -1 -14 4 5 9 34 13 34 5z m53 -9
c3 -9 -2 -13 -16 -11 -33 4 -34 5 -12 14 11 5 21 9 21 9 1 1 4 -5 7 -12z
m-5862 -20 c-10 -9 -11 -8 -5 6 3 10 9 15 12 12 3 -3 0 -11 -7 -18z m7183 7
c3 -8 2 -12 -4 -9 -6 3 -10 10 -10 16 0 14 7 11 14 -7z m-4246 -37 c-15 -10
-15 -12 -1 -22 13 -10 13 -14 3 -20 -9 -6 -11 -4 -5 5 6 10 4 12 -7 7 -10 -3
-15 -1 -14 8 3 19 28 47 35 39 3 -3 -2 -11 -11 -17z m659 -19 c-3 -8 -6 -5 -6
6 -1 11 2 17 5 13 3 -3 4 -12 1 -19z m773 -3 c7 -9 8 -15 2 -15 -5 0 -12 7
-16 15 -3 8 -4 15 -2 15 2 0 9 -7 16 -15z m69 -8 c8 -10 7 -14 -2 -14 -8 0
-14 6 -14 14 0 7 1 13 2 13 2 0 8 -6 14 -13z m-856 -14 c-7 -2 -13 -12 -13
-20 0 -9 -3 -14 -6 -10 -10 10 4 37 18 36 10 0 10 -2 1 -6z m723 -31 c-18 -16
-18 -16 -6 6 6 13 14 21 18 18 3 -4 -2 -14 -12 -24z m-1486 -22 c0 -5 -2 -10
-4 -10 -3 0 -8 5 -11 10 -3 6 -1 10 4 10 6 0 11 -4 11 -10z m763 -10 c3 -11 1
-18 -4 -14 -5 3 -9 12 -9 20 0 20 7 17 13 -6z m1924 6 c0 -8 -8 -11 -21 -8
-19 5 -19 6 0 13 10 4 19 8 20 8 0 1 1 -5 1 -13z m-5444 -61 c-3 -9 -8 -14
-10 -11 -3 3 -2 9 2 15 9 16 15 13 8 -4z m1857 -6 c0 -5 -4 -9 -8 -9 -5 0 -9
7 -9 15 0 8 4 12 9 9 4 -3 8 -9 8 -15z m2987 15 c-3 -3 -12 -4 -19 -1 -8 3 -5
6 6 6 11 1 17 -2 13 -5z m371 -1 c-10 -2 -26 -2 -35 0 -10 3 -2 5 17 5 19 0
27 -2 18 -5z m-5201 -35 c-3 -8 -6 -5 -6 6 -1 11 2 17 5 13 3 -3 4 -12 1 -19z
m1873 12 c0 -5 -2 -10 -4 -10 -3 0 -8 5 -11 10 -3 6 -1 10 4 10 6 0 11 -4 11
-10z m85 0 c-3 -5 -12 -10 -18 -10 -7 0 -6 4 3 10 19 12 23 12 15 0z m3120 0
c-3 -5 -14 -10 -23 -9 -14 0 -13 2 3 9 27 11 27 11 20 0z m82 4 c-3 -3 -12 -4
-19 -1 -8 3 -5 6 6 6 11 1 17 -2 13 -5z m1864 -17 c-10 -9 -11 -8 -5 6 3 10 9
15 12 12 3 -3 0 -11 -7 -18z m-4964 7 c-3 -3 -12 -4 -19 -1 -8 3 -5 6 6 6 11
1 17 -2 13 -5z m2846 -1 c-7 -2 -19 -2 -25 0 -7 3 -2 5 12 5 14 0 19 -2 13 -5z
m320 0 c-7 -2 -19 -2 -25 0 -7 3 -2 5 12 5 14 0 19 -2 13 -5z m-3316 -9 c-3
-3 -12 -4 -19 -1 -8 3 -5 6 6 6 11 1 17 -2 13 -5z m3270 0 c-3 -3 -12 -4 -19
-1 -8 3 -5 6 6 6 11 1 17 -2 13 -5z m-5156 -31 c-12 -20 -14 -14 -5 12 4 9 9
14 11 11 3 -2 0 -13 -6 -23z m6989 -8 c0 -5 -5 -3 -10 5 -5 8 -10 20 -10 25 0
6 5 3 10 -5 5 -8 10 -19 10 -25z m-2853 -117 c-3 -8 -6 -5 -6 6 -1 11 2 17 5
13 3 -3 4 -12 1 -19z m-728 -63 c0 -5 -4 -3 -9 5 -5 8 -9 22 -9 30 0 16 17
-16 18 -35z m-3354 25 c3 -5 1 -10 -4 -10 -6 0 -11 5 -11 10 0 6 2 10 4 10 3
0 8 -4 11 -10z m6885 0 c0 -5 -5 -10 -11 -10 -5 0 -7 5 -4 10 3 6 8 10 11 10
2 0 4 -4 4 -10z m-2802 -75 c-3 -3 -9 2 -12 12 -6 14 -5 15 5 6 7 -7 10 -15 7
-18z m2732 -74 c0 -4 -13 -7 -29 -7 -17 0 -28 2 -26 5 5 9 55 10 55 2z m-3489
-44 c-10 -9 -11 -8 -5 6 3 10 9 15 12 12 3 -3 0 -11 -7 -18z m-70 -134 c-12
-20 -14 -14 -5 12 4 9 9 14 11 11 3 -2 0 -13 -6 -23z m772 12 c-3 -9 -8 -14
-10 -11 -3 3 -2 9 2 15 9 16 15 13 8 -4z m-741 -67 c-8 -8 -9 -4 -5 13 4 13 8
18 11 10 2 -7 -1 -18 -6 -23z m-31 -5 c-12 -20 -14 -14 -5 12 4 9 9 14 11 11
3 -2 0 -13 -6 -23z m754 -18 l-14 -40 2 37 c1 20 5 34 10 31 4 -2 7 1 7 8 0 7
2 10 5 8 2 -3 -2 -23 -10 -44z m12 -47 c-3 -7 -5 -2 -5 12 0 14 2 19 5 13 2
-7 2 -19 0 -25z m-3759 -28 c-7 -10 -14 -17 -17 -15 -4 4 18 35 25 35 2 0 -1
-9 -8 -20z m2989 -32 c-3 -8 -6 -5 -6 6 -1 11 2 17 5 13 3 -3 4 -12 1 -19z
m-2932 -58 c3 -5 1 -10 -4 -10 -6 0 -11 5 -11 10 0 6 2 10 4 10 3 0 8 -4 11
-10z m6265 -8 c0 -5 -7 -17 -15 -28 -14 -18 -14 -17 -4 9 12 27 19 34 19 19z
m-47 -27 c-3 -9 -8 -14 -10 -11 -3 3 -2 9 2 15 9 16 15 13 8 -4z m-6198 -45
c3 -6 -1 -7 -9 -4 -18 7 -21 14 -7 14 6 0 13 -4 16 -10z m6205 6 c0 -2 -8 -10
-17 -17 -16 -13 -17 -12 -4 4 13 16 21 21 21 13z m-3356 -72 c3 -8 2 -12 -4
-9 -6 3 -10 10 -10 16 0 14 7 11 14 -7z m3303 0 c0 -7 -6 -10 -14 -7 -7 3 -13
8 -13 12 0 4 6 8 13 8 8 0 14 -6 14 -13z m-31 -37 c-2 -7 -5 -4 -5 6 -1 10 -5
15 -11 12 -6 -4 -7 1 -3 11 6 15 7 15 15 0 5 -9 7 -22 4 -29z m-3276 1 c0 -6
-6 -5 -15 2 -8 7 -15 14 -15 16 0 2 7 1 15 -2 8 -4 15 -11 15 -16z m-2770 8
c0 -3 -4 -8 -10 -11 -5 -3 -10 -1 -10 4 0 6 5 11 10 11 6 0 10 -2 10 -4z m33
-62 c-4 -12 -8 -13 -14 -3 -9 15 -2 32 11 24 5 -3 6 -13 3 -21z m43 -11 c-3
-8 1 -26 10 -41 l16 -27 -21 25 c-11 14 -18 31 -16 39 3 7 0 21 -7 30 -12 14
-11 15 5 2 10 -8 16 -20 13 -28z m5905 23 c-6 -7 -9 -20 -5 -29 3 -8 0 -18 -5
-22 -6 -3 -9 -10 -6 -15 3 -4 -2 -11 -11 -14 -15 -6 -15 -4 0 19 9 14 14 30
11 36 -6 9 11 39 22 39 3 0 0 -6 -6 -14z m42 -12 c-4 -12 -8 -13 -14 -3 -9 15
-2 32 11 24 5 -3 6 -13 3 -21z m-5778 -246 c5 4 5 1 1 -6 -6 -10 -11 -10 -22
-1 -8 6 -14 14 -14 16 0 3 6 0 13 -6 8 -6 18 -7 22 -3z m5585 8 c0 -2 -8 -10
-17 -17 -16 -13 -17 -12 -4 4 13 16 21 21 21 13z m-5520 -75 c0 -4 -7 -8 -15
-8 -16 0 -20 9 -9 20 8 8 24 -1 24 -12z m5404 -17 c3 -8 2 -12 -4 -9 -6 3 -10
10 -10 16 0 14 7 11 14 -7z m-37 -59 c0 -8 -4 -12 -9 -9 -5 3 -6 10 -3 15 9
13 12 11 12 -6z m-5182 -85 c-2 -28 -20 -46 -30 -29 -5 7 -4 10 3 5 6 -3 13
-2 17 4 3 5 1 10 -6 10 -8 0 -8 4 1 15 16 19 17 19 15 -5z m5065 5 c7 -9 8
-15 2 -15 -5 0 -12 7 -16 15 -3 8 -4 15 -2 15 2 0 9 -7 16 -15z m20 -31 c0 -8
-19 -13 -24 -6 -3 5 1 9 9 9 8 0 15 -2 15 -3z m-5013 -49 c0 -8 -4 -12 -9 -9
-5 3 -6 10 -3 15 9 13 12 11 12 -6z m4918 6 c3 -5 2 -12 -3 -15 -5 -3 -9 1 -9
9 0 17 3 19 12 6z m8 -32 c-15 -16 -22 -18 -28 -8 -5 8 -4 10 3 5 6 -4 17 2
24 13 7 11 14 18 17 15 3 -2 -4 -14 -16 -25z m-4918 -1 c5 4 5 1 1 -6 -6 -10
-11 -10 -22 -1 -8 6 -14 14 -14 16 0 3 6 0 13 -6 8 -6 18 -7 22 -3z m4824 -51
c8 -10 7 -14 -2 -14 -8 0 -14 6 -14 14 0 7 1 13 2 13 2 0 8 -6 14 -13z m-4641
-70 c15 4 15 3 2 -6 -13 -9 -13 -11 0 -12 20 -2 22 -2 45 6 11 3 8 -1 -7 -9
-28 -17 -29 -52 -2 -42 16 6 29 -10 15 -19 -14 -8 -53 33 -45 46 3 6 -1 9 -11
7 -12 -2 -19 5 -21 22 -1 14 0 20 2 13 3 -7 13 -9 22 -6z m109 -104 c-7 -6
-46 10 -41 18 3 5 14 3 24 -3 11 -7 18 -13 17 -15z m24 10 c13 -17 13 -17 -6
-3 -11 8 -22 16 -24 17 -2 2 0 3 6 3 6 0 17 -8 24 -17z m4288 14 c-2 -1 -13
-9 -24 -17 -19 -14 -19 -14 -6 3 7 9 18 17 24 17 6 0 8 -1 6 -3z m37 -9 c4 -6
3 -8 -4 -4 -6 3 -15 -1 -20 -10 -5 -9 -13 -16 -18 -16 -5 0 -8 -4 -6 -10 1 -5
-3 -6 -9 -2 -9 5 -3 15 17 31 34 27 31 26 40 11z m-4163 -132 c3 -8 0 -17 -7
-19 -10 -4 -12 1 -9 14 6 23 9 24 16 5z m47 -30 c-7 -7 -13 -7 -20 0 -6 6 -3
10 10 10 13 0 16 -4 10 -10z m30 -6 c0 -5 -5 -10 -11 -10 -5 0 -7 5 -4 10 3 6
8 10 11 10 2 0 4 -4 4 -10z m3795 0 c3 -5 1 -10 -4 -10 -6 0 -11 5 -11 10 0 6
2 10 4 10 3 0 8 -4 11 -10z m-3665 -80 c6 -11 8 -20 6 -20 -3 0 -10 9 -16 20
-6 11 -8 20 -6 20 3 0 10 -9 16 -20z m3503 5 c-3 -9 -8 -14 -10 -11 -3 3 -2 9
2 15 9 16 15 13 8 -4z m27 -5 c-6 -11 -13 -20 -16 -20 -2 0 0 9 6 20 6 11 13
20 16 20 2 0 0 -9 -6 -20z m-3550 -10 c9 -16 8 -18 -5 -14 -8 3 -12 11 -8 17
4 6 0 8 -11 4 -10 -4 -15 -3 -11 3 10 16 23 12 35 -10z m3595 10 c4 -6 -1 -7
-11 -3 -11 4 -15 2 -11 -4 4 -6 0 -14 -8 -17 -13 -4 -14 -2 -5 14 12 22 25 26
35 10z m-3422 -75 c0 -6 -7 -11 -16 -11 -16 -2 -16 -1 -1 3 14 4 15 7 3 15
-11 7 -11 9 -1 6 8 -2 14 -8 15 -13z m42 -3 c-3 -3 -11 0 -18 7 -9 10 -8 11 6
5 10 -3 15 -9 12 -12z m3155 14 c0 -2 -7 -7 -16 -10 -8 -3 -12 -2 -9 4 6 10
25 14 25 6z m-3030 -86 c8 -5 11 -10 5 -10 -5 0 -17 5 -25 10 -8 5 -10 10 -5
10 6 0 17 -5 25 -10z m2895 0 c-3 -5 -12 -10 -18 -10 -7 0 -6 4 3 10 19 12 23
12 15 0z m-2865 -25 c-7 -9 -15 -13 -19 -10 -3 3 1 10 9 15 21 14 24 12 10 -5z
m430 -129 c0 -2 -7 -7 -16 -10 -8 -3 -12 -2 -9 4 6 10 25 14 25 6z m1965 -6
c-11 -5 -27 -9 -35 -9 -9 0 -8 4 5 9 11 5 27 9 35 9 9 0 8 -4 -5 -9z m-2020
-10 c3 -6 -1 -7 -9 -4 -18 7 -21 14 -7 14 6 0 13 -4 16 -10z m85 6 c0 -2 -7
-7 -16 -10 -8 -3 -12 -2 -9 4 6 10 25 14 25 6z m283 -93 c-7 -2 -21 -2 -30 0
-10 3 -4 5 12 5 17 0 24 -2 18 -5z m1370 0 c-7 -2 -21 -2 -30 0 -10 3 -4 5 12
5 17 0 24 -2 18 -5z m-1246 -9 c-3 -3 -12 -4 -19 -1 -8 3 -5 6 6 6 11 1 17 -2
13 -5z m1110 0 c-3 -3 -12 -4 -19 -1 -8 3 -5 6 6 6 11 1 17 -2 13 -5z m-1064
-11 c-7 -2 -19 -2 -25 0 -7 3 -2 5 12 5 14 0 19 -2 13 -5z m1024 1 c-3 -3 -12
-4 -19 -1 -8 3 -5 6 6 6 11 1 17 -2 13 -5z m-982 -14 c3 -6 -1 -7 -9 -4 -18 7
-21 14 -7 14 6 0 13 -4 16 -10z m935 6 c0 -3 -4 -8 -10 -11 -5 -3 -10 -1 -10
4 0 6 5 11 10 11 6 0 10 -2 10 -4z"/>
<path d="M7130 6860 c0 -5 5 -10 11 -10 5 0 7 5 4 10 -3 6 -8 10 -11 10 -2 0
-4 -4 -4 -10z"/>
<path d="M5051 6731 c9 -26 39 -63 39 -48 0 8 -41 77 -45 77 -2 0 1 -13 6 -29z"/>
<path d="M7536 6417 c3 -10 9 -15 12 -12 3 3 0 11 -7 18 -10 9 -11 8 -5 -6z"/>
<path d="M6425 6361 c-11 -5 -25 -6 -31 -4 -6 2 -14 -3 -17 -11 -4 -9 -11 -16
-17 -16 -6 0 -8 5 -5 10 3 6 2 10 -4 10 -5 0 -13 -5 -16 -10 -4 -6 -11 -7 -17
-4 -8 5 -9 1 -4 -11 5 -15 4 -16 -9 -5 -12 10 -15 10 -15 -4 0 -9 -5 -16 -11
-16 -5 0 -7 5 -3 11 4 7 -12 1 -34 -11 -39 -22 -47 -32 -43 -53 1 -5 -3 -5 -9
-2 -6 4 -20 -1 -31 -11 -20 -18 -27 -40 -9 -29 6 4 7 -1 3 -11 -4 -11 -8 -13
-11 -6 -5 16 -23 15 -19 0 1 -7 -4 -12 -10 -10 -7 1 -13 -5 -13 -13 0 -7 -6
-18 -13 -22 -21 -13 -46 -54 -41 -68 3 -7 -2 -15 -10 -18 -10 -4 -13 -13 -9
-23 4 -11 2 -15 -4 -11 -11 7 -28 -37 -24 -62 1 -8 -2 -10 -9 -6 -9 6 -9 2 -1
-14 9 -17 9 -21 -1 -19 -8 2 -13 -6 -12 -19 0 -12 -3 -20 -7 -17 -8 5 -25 -73
-21 -96 7 -34 1 -63 -15 -75 -10 -8 -16 -28 -17 -58 -1 -25 -4 -41 -7 -35 -7
12 -19 -42 -19 -88 0 -24 6 -37 23 -46 28 -15 49 -19 41 -7 -3 5 -10 6 -16 3
-7 -5 -8 -2 -4 5 5 7 11 10 14 7 3 -3 11 -1 18 5 8 7 14 7 19 -1 4 -6 1 -9 -5
-8 -7 2 -14 -6 -16 -18 -2 -16 7 -27 39 -45 23 -13 47 -25 52 -25 6 -1 16 -2
23 -3 7 0 11 -5 8 -10 -3 -5 1 -12 10 -15 23 -9 26 -8 19 7 -4 6 0 4 8 -5 11
-14 16 -15 26 -5 10 9 11 9 6 -4 -7 -20 21 -29 68 -23 22 2 28 1 17 -6 -23
-14 35 -33 61 -20 14 8 19 8 17 -1 -4 -18 42 -27 139 -27 98 1 147 12 123 30
-12 8 -12 9 3 4 10 -3 21 -6 23 -6 3 0 2 -5 -2 -12 -5 -8 -2 -9 10 -5 10 4 23
7 29 8 7 0 3 4 -8 9 -15 6 -11 8 18 8 21 -1 43 4 50 11 10 11 7 12 -13 6 -19
-5 -21 -4 -10 4 8 6 24 8 34 5 15 -5 18 -3 13 10 -4 9 -2 16 4 16 6 0 8 4 5 9
-6 9 20 35 45 44 9 3 16 0 16 -9 0 -7 -4 -11 -9 -8 -4 3 -16 0 -25 -6 -16 -11
-16 -11 -1 -6 10 3 20 0 24 -6 4 -7 3 -8 -4 -4 -7 4 -12 2 -12 -3 0 -6 -5 -10
-11 -8 -6 1 -13 -4 -15 -11 -1 -7 0 -8 3 -2 2 5 9 8 14 5 5 -4 20 5 33 18 13
13 31 27 40 30 10 4 13 12 9 23 -4 11 -2 15 4 11 12 -8 55 21 48 33 -3 5 5 16
17 25 l23 16 -28 -5 c-23 -4 -26 -2 -18 8 6 7 7 16 3 21 -4 4 3 2 15 -6 19
-11 25 -11 35 0 8 9 9 12 1 7 -6 -3 -15 -2 -18 4 -4 6 -3 10 2 9 24 -4 35 4
48 34 9 23 10 36 3 45 -6 7 -8 15 -4 19 3 3 6 1 6 -5 0 -7 4 -12 10 -12 5 0 9
3 9 8 -4 25 2 62 10 58 5 -3 9 4 9 17 0 12 3 32 7 45 6 18 4 21 -9 16 -14 -5
-14 -3 0 26 15 29 15 51 0 125 -7 31 -7 32 -16 5 l-8 -25 -1 28 c-1 15 4 27
10 27 14 0 0 43 -18 53 -7 5 -11 13 -7 18 5 8 -17 48 -54 99 -2 2 -8 -2 -13
-10 -9 -13 -10 -13 -6 1 3 9 0 22 -6 29 -9 10 -9 11 2 5 10 -6 12 -4 7 4 -5 7
-14 10 -22 7 -7 -3 -16 -1 -20 5 -3 5 -15 7 -26 3 -18 -5 -19 -4 -7 9 13 14
16 13 32 0 9 -9 17 -13 17 -8 0 9 -54 52 -56 45 -1 -3 -12 8 -24 23 -18 22
-25 25 -36 16 -12 -10 -13 -9 -8 5 4 9 3 16 -2 14 -5 -1 -21 6 -36 16 -15 10
-33 14 -39 10 -8 -5 -9 -3 -4 6 6 10 4 12 -8 7 -9 -3 -17 -2 -19 3 -4 12 -43
15 -83 6 -20 -4 -24 -4 -10 2 16 8 15 10 -14 15 -43 9 -91 8 -116 -2z m-151
-80 c4 -5 -4 -7 -16 -4 -17 3 -19 2 -10 -5 11 -8 11 -10 -1 -15 -13 -5 -16 5
-8 31 2 6 31 1 35 -7z m41 -21 c-3 -5 -14 -10 -23 -9 -14 0 -13 2 3 9 27 11
27 11 20 0z m480 1 c7 -12 -12 -24 -25 -16 -11 7 -4 25 10 25 5 0 11 -4 15 -9z
m39 -32 c3 -3 -3 -10 -12 -16 -14 -8 -18 -7 -18 7 0 16 18 21 30 9z m6 -65 c0
-2 -9 0 -20 6 -11 6 -20 13 -20 16 0 2 9 0 20 -6 11 -6 20 -13 20 -16z m80
-49 c-7 -9 -15 -13 -19 -10 -3 3 1 10 9 15 21 14 24 12 10 -5z m14 -23 c3 -5
-1 -9 -9 -9 -8 0 -12 4 -9 9 3 4 7 8 9 8 2 0 6 -4 9 -8z m-866 -35 c-7 -12
-11 -27 -10 -34 1 -6 -3 -15 -10 -19 -7 -4 -10 -4 -6 1 4 4 3 17 -3 28 -8 13
-8 17 0 13 12 -8 33 28 23 39 -4 5 -1 5 6 1 9 -6 10 -12 0 -29z m949 -179 c-3
-7 -5 -2 -5 12 0 14 2 19 5 13 2 -7 2 -19 0 -25z m-1037 -48 c0 -5 -2 -10 -4
-10 -3 0 -8 5 -11 10 -3 6 -1 10 4 10 6 0 11 -4 11 -10z m1007 -12 c-3 -8 -6
-5 -6 6 -1 11 2 17 5 13 3 -3 4 -12 1 -19z m-1017 -126 c0 -4 -9 -8 -20 -8
-11 0 -20 4 -20 8 0 4 9 8 20 8 11 0 20 -4 20 -8z m915 -212 c-3 -5 -14 -10
-23 -9 -14 0 -13 2 3 9 27 11 27 11 20 0z m-50 -48 c-3 -3 -11 0 -18 7 -9 10
-8 11 6 5 10 -3 15 -9 12 -12z m-222 -84 c-2 -5 -10 -8 -18 -8 -8 0 -16 3 -18
8 -3 4 5 7 18 7 13 0 21 -3 18 -7z m42 2 c-3 -5 -12 -10 -18 -10 -7 0 -6 4 3
10 19 12 23 12 15 0z m-120 -40 c-3 -5 -12 -10 -18 -10 -7 0 -6 4 3 10 19 12
23 12 15 0z"/>
<path d="M5933 5755 c-3 -9 -3 -18 -1 -21 3 -3 8 4 11 16 6 23 -1 27 -10 5z"/>
<path d="M7365 5013 c-14 -32 -13 -39 7 -40 20 -2 20 -1 2 13 -16 12 -16 13
-2 8 13 -4 16 0 15 15 -2 26 -12 27 -22 4z"/>
<path d="M3135 4680 c-3 -5 -1 -10 4 -10 6 0 11 5 11 10 0 6 -2 10 -4 10 -3 0
-8 -4 -11 -10z"/>
<path d="M5470 3650 c0 -5 5 -10 11 -10 5 0 7 5 4 10 -3 6 -8 10 -11 10 -2 0
-4 -4 -4 -10z"/>
<path d="M2966 8944 c-11 -7 -17 -16 -15 -19 3 -3 14 2 25 9 10 8 17 17 14 19
-3 3 -14 -1 -24 -9z"/>
<path d="M2330 8420 c0 -5 5 -10 11 -10 5 0 7 5 4 10 -3 6 -8 10 -11 10 -2 0
-4 -4 -4 -10z"/>
<path d="M8362 4190 c3 -8 -1 -23 -10 -32 -9 -11 -11 -18 -4 -18 19 0 36 40
22 54 -10 8 -11 7 -8 -4z"/>
<path d="M2355 3179 c-11 -17 1 -21 15 -4 8 9 8 15 2 15 -6 0 -14 -5 -17 -11z"/>
<path d="M6573 2421 c-1 -14 3 -18 13 -14 11 4 12 9 3 19 -15 18 -14 18 -16
-5z"/>
<path d="M0 400 l0 -400 5000 0 5000 0 0 400 0 400 -5000 0 -5000 0 0 -400z
m334 57 c52 -148 43 -145 85 -27 30 84 42 106 59 108 20 3 19 -1 -15 -95 -19
-54 -40 -113 -46 -131 -9 -27 -15 -32 -36 -30 -22 3 -29 16 -68 123 -24 65
-43 123 -43 127 0 4 8 8 18 8 12 0 25 -22 46 -83z m1127 54 c34 -34 37 -51 9
-51 -11 0 -20 4 -20 10 0 5 -11 17 -25 26 -34 22 -78 5 -73 -29 2 -17 15 -26
57 -39 29 -10 59 -23 67 -29 20 -17 17 -73 -5 -93 -44 -40 -138 -28 -160 20
-15 33 -14 34 8 34 10 0 21 -7 25 -15 16 -41 106 -38 106 4 0 25 -17 38 -64
46 -75 15 -103 83 -50 124 39 31 89 28 125 -8z m609 -43 l0 -72 39 38 c23 22
46 36 57 34 15 -3 12 -9 -19 -39 l-37 -36 41 -56 c38 -54 39 -57 17 -57 -15 1
-32 14 -50 40 -15 22 -32 40 -38 40 -5 0 -10 -18 -10 -40 0 -33 -3 -40 -20
-40 -19 0 -20 7 -20 130 0 123 1 130 20 130 18 0 20 -7 20 -72z m-1150 21 c0
-12 7 -19 20 -19 11 0 20 -7 20 -15 0 -8 -9 -15 -20 -15 -18 0 -20 -7 -20 -65
0 -58 2 -65 20 -65 11 0 20 -7 20 -16 0 -11 -8 -14 -32 -12 l-33 3 -3 74 c-3
63 -6 74 -22 78 -26 7 -26 33 0 33 13 0 20 7 20 18 0 10 3 22 6 25 11 10 24
-3 24 -24z m650 1 c0 -13 7 -20 20 -20 11 0 20 -7 20 -15 0 -8 -9 -15 -20 -15
-18 0 -20 -7 -20 -65 0 -58 2 -65 20 -65 11 0 20 -7 20 -16 0 -11 -8 -14 -32
-12 l-33 3 -3 74 c-3 63 -6 74 -22 78 -26 7 -26 33 0 33 13 0 20 7 20 20 0 11
7 20 15 20 8 0 15 -9 15 -20z m-945 -45 c14 -13 25 -36 25 -50 0 -24 -2 -25
-65 -25 -69 0 -82 -12 -49 -44 20 -20 48 -20 68 0 9 8 24 14 34 12 30 -6 -31
-58 -68 -58 -46 0 -90 47 -90 95 0 79 92 124 145 70z m189 4 c27 -22 35 -49
13 -49 -7 0 -20 9 -30 20 -34 40 -87 12 -87 -46 0 -58 52 -85 87 -44 20 23 43
26 43 6 0 -22 -49 -56 -82 -56 -19 0 -40 10 -59 29 -81 81 25 211 115 140z
m317 -8 c21 -22 29 -39 29 -66 0 -48 -44 -95 -90 -95 -46 0 -90 47 -90 95 0
48 44 95 90 95 22 0 41 -9 61 -29z m99 19 c0 -7 6 -7 19 0 29 15 41 12 41 -10
0 -13 -7 -20 -18 -20 -31 0 -42 -22 -42 -87 0 -56 -2 -63 -20 -63 -19 0 -20 7
-20 95 0 88 1 95 20 95 11 0 20 -5 20 -10z m551 -19 c21 -22 29 -39 29 -66 0
-48 -44 -95 -90 -95 -46 0 -90 47 -90 95 0 48 44 95 90 95 22 0 41 -9 61 -29z
m194 4 c14 -13 25 -29 25 -35 0 -17 -24 -11 -43 10 -33 39 -87 12 -87 -43 0
-58 53 -87 87 -47 20 23 43 26 43 6 0 -22 -49 -56 -82 -56 -44 0 -88 48 -88
95 0 79 92 124 145 70z m6635 18 c0 -16 -63 -198 -71 -207 -5 -5 -11 -7 -14
-4 -7 7 67 218 77 218 4 0 8 -3 8 -7z m-1856 -71 c11 -34 23 -62 27 -62 4 0
17 29 29 65 13 39 27 65 36 65 10 0 6 -19 -16 -81 -17 -44 -30 -82 -30 -85 0
-2 -8 -4 -18 -4 -13 0 -25 20 -45 78 -31 87 -32 95 -15 90 7 -3 21 -32 32 -66z
m760 52 c20 -20 20 -34 1 -34 -8 0 -15 4 -15 9 0 13 -27 21 -45 15 -21 -8 -19
-33 3 -40 65 -21 72 -27 72 -55 0 -31 -23 -49 -63 -49 -28 0 -62 33 -52 50 5
8 13 5 26 -9 23 -25 42 -27 59 -6 16 19 7 29 -42 44 -22 7 -40 21 -43 32 -15
46 63 79 99 43z m406 -31 l0 -47 30 29 c35 34 54 26 21 -9 l-23 -25 27 -35
c21 -28 24 -36 11 -36 -8 0 -23 11 -32 25 -9 14 -20 25 -25 25 -5 0 -9 -11 -9
-25 0 -16 -6 -25 -15 -25 -12 0 -15 16 -15 85 0 69 3 85 15 85 11 0 15 -12 15
-47z m820 32 c0 -8 -9 -20 -19 -27 -18 -11 -18 -12 6 -31 31 -25 28 -66 -8
-86 -32 -18 -75 -8 -84 20 -10 30 2 35 23 9 14 -17 24 -21 41 -15 31 9 26 59
-6 63 -28 4 -29 10 -1 39 l21 23 -41 0 c-23 0 -42 5 -42 10 0 6 25 10 55 10
42 0 55 -4 55 -15z m145 -5 c-16 -51 -66 -150 -76 -150 -12 0 -6 24 27 94 l24
51 -50 3 c-73 4 -61 22 16 22 61 0 65 -1 59 -20z m121 3 c20 -20 1 -32 -21
-13 -19 15 -40 7 -55 -20 -11 -20 -10 -21 9 -11 42 23 81 1 81 -46 0 -57 -61
-82 -100 -43 -32 32 -23 117 14 142 19 13 54 9 72 -9z m134 -3 c45 -45 15
-150 -42 -150 -22 0 -58 26 -58 42 0 14 28 9 34 -7 11 -30 49 -14 61 25 6 20
5 23 -6 13 -31 -30 -89 -4 -89 39 0 52 63 75 100 38z m145 4 c22 -22 11 -30
-20 -14 -20 11 -27 11 -40 0 -23 -19 -18 -31 9 -24 38 9 66 -11 66 -48 0 -61
-59 -89 -100 -48 -32 32 -23 117 14 142 19 13 54 9 71 -8z m141 -1 c20 -20 1
-32 -21 -13 -18 15 -40 7 -55 -19 -10 -20 -9 -20 15 -9 39 18 75 -3 75 -43 0
-62 -59 -90 -100 -49 -32 32 -23 117 14 142 19 13 54 9 72 -9z m149 -3 c-16
-49 -66 -150 -75 -150 -14 0 -14 -1 19 77 l30 68 -50 3 c-73 4 -60 22 17 22
61 0 65 -1 59 -20z m115 -34 c0 -34 5 -57 13 -60 10 -5 10 -7 0 -12 -7 -3 -13
-14 -13 -25 0 -10 -7 -19 -15 -19 -8 0 -15 9 -15 20 0 17 -7 20 -40 20 -22 0
-40 3 -40 6 0 14 86 123 98 124 8 0 12 -17 12 -54z m-2530 29 c0 -8 7 -15 15
-15 8 0 15 -4 15 -10 0 -5 -7 -10 -15 -10 -11 0 -15 -12 -15 -45 0 -33 4 -45
15 -45 8 0 15 -4 15 -10 0 -16 -47 -11 -54 6 -3 9 -6 33 -6 54 0 21 -6 41 -12
44 -10 5 -10 7 0 12 6 3 12 12 12 20 0 8 7 14 15 14 8 0 15 -7 15 -15z m430 0
c0 -8 7 -15 15 -15 8 0 15 -4 15 -10 0 -5 -7 -10 -15 -10 -11 0 -15 -12 -15
-45 0 -33 4 -45 15 -45 8 0 15 -4 15 -10 0 -16 -47 -11 -54 6 -3 9 -6 33 -6
54 0 21 -6 41 -12 44 -10 5 -10 7 0 12 6 3 12 12 12 20 0 8 7 14 15 14 8 0 15
-7 15 -15z m-638 -32 c10 -9 18 -24 18 -35 0 -15 -8 -18 -45 -18 -47 0 -56 -9
-30 -30 13 -11 20 -11 40 0 31 16 42 8 20 -14 -36 -36 -95 -6 -95 47 0 57 52
86 92 50z m132 1 c31 -31 16 -46 -16 -17 -25 23 -53 6 -53 -32 0 -38 28 -55
53 -32 32 29 47 14 16 -17 -35 -36 -94 -6 -94 47 0 57 58 88 94 51z m216 -4
c56 -56 -23 -146 -82 -93 -10 9 -18 30 -18 46 0 60 59 88 100 47z m100 9 c0
-4 -9 -13 -20 -19 -15 -8 -20 -21 -20 -55 0 -33 -4 -45 -15 -45 -12 0 -15 14
-15 64 l0 64 35 0 c19 0 35 -4 35 -9z m323 -1 c28 -22 32 -73 8 -97 -41 -41
-101 -15 -101 42 0 55 52 85 93 55z m131 -4 c31 -31 16 -46 -16 -17 -25 23
-53 6 -53 -32 0 -38 28 -55 53 -32 32 29 47 14 16 -17 -35 -36 -94 -6 -94 47
0 57 58 88 94 51z m310 0 c31 -31 16 -46 -16 -17 -25 23 -53 6 -53 -32 0 -38
28 -55 53 -32 32 29 47 14 16 -17 -35 -36 -94 -6 -94 47 0 57 58 88 94 51z
m136 -4 c56 -56 -23 -146 -82 -93 -10 9 -18 30 -18 46 0 60 59 88 100 47z
m198 7 c14 -10 17 -117 2 -117 -5 0 -10 20 -10 44 0 54 -24 81 -46 51 -8 -10
-14 -36 -14 -57 0 -58 -19 -45 -22 15 -3 44 -6 52 -23 52 -17 0 -20 -8 -23
-52 -2 -38 -7 -53 -18 -53 -11 0 -14 15 -14 64 l0 64 78 -2 c42 -1 83 -5 90
-9z m-448 -102 c0 -8 -7 -15 -15 -15 -8 0 -15 7 -15 15 0 8 7 15 15 15 8 0 15
-7 15 -15z"/>
<path d="M530 425 c-18 -22 -9 -27 46 -23 46 3 47 4 30 21 -22 21 -59 22 -76
2z"/>
<path d="M1037 422 c-34 -38 -10 -112 36 -112 26 0 47 29 47 65 0 58 -49 85
-83 47z"/>
<path d="M1687 422 c-34 -38 -10 -112 36 -112 26 0 47 29 47 65 0 58 -49 85
-83 47z"/>
<path d="M8940 375 c-26 -31 13 -82 44 -56 19 16 21 42 4 59 -16 16 -33 15
-48 -3z"/>
<path d="M9069 424 c-17 -21 0 -49 32 -49 18 0 25 6 27 24 6 38 -34 55 -59 25z"/>
<path d="M9220 375 c-26 -31 13 -82 44 -56 19 16 21 42 4 59 -16 16 -33 15
-48 -3z"/>
<path d="M9363 383 c-18 -7 -16 -48 3 -64 31 -26 70 25 44 56 -13 15 -25 17
-47 8z"/>
<path d="M9636 385 c-21 -31 -20 -35 4 -35 16 0 20 7 20 30 0 36 -3 37 -24 5z"/>
<path d="M6890 385 c-11 -13 -7 -15 25 -15 32 0 36 2 25 15 -7 8 -18 15 -25
15 -7 0 -18 -7 -25 -15z"/>
<path d="M7230 386 c-15 -19 -9 -56 12 -69 34 -22 66 41 36 71 -16 16 -33 15
-48 -2z"/>
<path d="M7660 385 c-15 -18 -5 -64 15 -72 35 -13 61 47 33 75 -16 16 -33 15
-48 -3z"/>
<path d="M8228 376 c-12 -28 -5 -54 17 -62 35 -14 61 46 33 74 -19 19 -37 14
-50 -12z"/>
</g>
</svg>
